<svg width="22" height="22" fill="none" xmlns="http://www.w3.org/2000/svg"><g clip-path="url(#clip0)" fill="#0F473D"><path d="M21.93 4.77a.322.322 0 00-.223-.119L3.914 3.036a1.006 1.006 0 00-.293-.673L1.726.468a1.005 1.005 0 00-.715-.296c-.27 0-.524.105-.715.296A1.005 1.005 0 000 1.183c0 .27.105.524.296.715l1.895 1.895a1.004 1.004 0 001.01.252l2.694 8.92a1.69 1.69 0 001.751 1.204l12.182-.892a1.36 1.36 0 001.245-1.176l.924-7.087a.322.322 0 00-.068-.243zM3.164 3.338a.364.364 0 01-.519 0L.752 1.443a.364.364 0 010-.519.364.364 0 01.518 0L3.165 2.82a.367.367 0 010 .518zm7.933.999l.145 2.357-3.012-.11-.476-2.55 3.343.303zM3.76 3.67l3.327.302.482 2.588L4.6 6.451 3.76 3.67zm1.959 6.486l-.922-3.052 2.893.105.54 2.891-2.511.056zm1.88 3.37a1.05 1.05 0 01-1.088-.748l-.599-1.982 2.437-.054.501 2.692-1.252.092zm.752-6.293l2.93.107.167 2.689-2.566.057-.531-2.853zm1.146 6.154l-.495-2.66 2.485-.055.158 2.558-2.148.157zm5.07-.371l-2.28.167-.155-2.525 2.5-.056-.065 2.414zm.082-3.059l-2.556.057-.164-2.65 2.786.1-.066 2.493zm.083-3.137l-2.843-.103-.143-2.322 3.043.276-.057 2.15zm2.936 5.97l-2.455.179.064-2.38 2.572-.058-.181 2.258zm.233-2.905l-2.607.058.065-2.455 2.727.1-.185 2.297zm.237-2.94l-2.762-.101.056-2.115 2.863.26-.157 1.956zm2.295 5.072a.714.714 0 01-.653.618l-1.462.107.179-2.225 2.138-.048-.202 1.548zm.286-2.194l-2.17.048.182-2.26 2.266.083-.278 2.129zm.361-2.771l-2.297-.084.154-1.92 2.377.215-.234 1.789zM18.9 19.156v-.773h.711a.322.322 0 000-.644H6.19a.361.361 0 01-.306-.165.36.36 0 01-.03-.346l.91-2.124a.322.322 0 10-.593-.254l-.91 2.124a1.009 1.009 0 00.93 1.41h.354v.772a1.358 1.358 0 00-1.033 1.316c0 .748.608 1.356 1.356 1.356a1.356 1.356 0 00.322-2.672v-.773h11.067v.773a1.358 1.358 0 00-1.034 1.316c0 .748.608 1.356 1.356 1.356a1.356 1.356 0 00.322-2.672zM7.578 20.472a.712.712 0 11-1.424-.001.712.712 0 011.424.001zm11 .711a.712.712 0 11.001-1.424.712.712 0 01-.001 1.424z"/></g><defs><clipPath id="clip0"><path fill="#fff" d="M0 0h22v22H0z"/></clipPath></defs></svg>