<svg width="36" height="36" fill="none" xmlns="http://www.w3.org/2000/svg"><path d="M12.944 7.052zm7.196 6.221a5.809 5.809 0 01-5.028-2.871c.007.006.015.02.023.026a5.964 5.964 0 01-1.81-2.29c.013.029.024.054.038.054H7.097V29.32h.653c.371-1.874 2.2-3.682 4.395-3.682 2.195 0 4.024 1.808 4.395 3.682h13.456v-7.046c-1.562-.362-3.027-1.896-3.027-3.728 0-1.832 1.465-3.366 3.026-3.728V8.19h-4.082c-.384 3.123-2.826 5.082-5.772 5.082zm-9.372 6.904A2.922 2.922 0 017.85 17.26a2.922 2.922 0 012.918-2.919c1.61 0 2.919 1.31 2.919 2.919s-1.31 2.918-2.919 2.918zm10.914 5.091a3.712 3.712 0 01-3.708-3.708 3.712 3.712 0 013.708-3.708 3.712 3.712 0 013.708 3.708 3.712 3.712 0 01-3.708 3.709z" fill="#FDD44B"/><path d="M21.681 17.852a3.712 3.712 0 00-3.708 3.708 3.712 3.712 0 003.709 3.709 3.712 3.712 0 003.708-3.709 3.712 3.712 0 00-3.709-3.708zm-2.143 3.708c0-1.181.962-2.143 2.143-2.143 1.182 0 2.144.961 2.144 2.143a2.146 2.146 0 01-2.143 2.144 2.146 2.146 0 01-2.144-2.144zm-8.77-7.22a2.922 2.922 0 00-2.919 2.919 2.922 2.922 0 002.919 2.918 2.922 2.922 0 002.919-2.918c0-1.61-1.31-2.919-2.919-2.919zm0 4.273a1.355 1.355 0 01-1.354-1.354c0-.747.608-1.354 1.354-1.354.746 0 1.354.607 1.354 1.354 0 .746-.607 1.354-1.354 1.354z" fill="#3F2D20"/><path d="M30.872 16.303c.432 0 .782-.35.782-.782V5.782A.782.782 0 0030.872 5h-7.203a.782.782 0 00-.782.782c0 2.35-1.911 4.26-4.26 4.26a4.264 4.264 0 01-4.259-4.26.782.782 0 00-.782-.782H4.782A.782.782 0 004 5.782v24.436c0 .432.35.782.782.782h3.682c.432 0 .782-.35.782-.782 0-1.599 1.3-2.9 2.899-2.9a2.903 2.903 0 012.899 2.9c0 .432.35.782.782.782h15.046c.432 0 .782-.35.782-.782v-8.645a.782.782 0 00-.782-.782 2.246 2.246 0 01-2.244-2.244 2.246 2.246 0 012.244-2.244zm-.783 13.132H16.54a4.471 4.471 0 00-4.395-3.681 4.471 4.471 0 00-4.395 3.681H5.565V6.565h7.29a5.833 5.833 0 005.772 5.042A5.833 5.833 0 0024.4 6.565h5.69v8.254a3.815 3.815 0 00-3.026 3.728c0 1.832 1.3 3.366 3.026 3.728v7.16z" fill="#3F2D20"/></svg>