<svg width="36" height="36" fill="none" xmlns="http://www.w3.org/2000/svg"><g clip-path="url(#clip0)"><path d="M19.642 14.668h.688L32.832 4.82l-.264-.335-12.926 10.182zM25.36 2.627l-.13-.086-8.826 12.143h.197l9.164-12.607-.406.55z" fill="#FDD44B"/><path d="M25.375 17.178l-17.84-.047 2.839 6.029h12.003l2.998-5.982z" fill="#EF8829"/><path d="M23.536 24.171c-.127.262-.287-.002-.579-.002H9.48c-.29 0-.661.265-.788.002L6.853 20.36l1.496 2.975 1.725 11.227h13.09l2.21-14.327-1.838 3.936zm-3.378 7.498c-1.093.48-2.53.745-4.044.745-1.516 0-2.952-.264-4.045-.745-1.291-.567-2.002-1.398-2.002-2.338 0-.94.711-1.77 2.002-2.338 1.093-.48 2.53-.745 4.045-.745 1.515 0 2.951.264 4.044.745 1.291.568 2.002 1.398 2.002 2.338 0 .94-.71 1.77-2.002 2.338z" fill="#84BD93"/><path d="M20.19 28.738c-.75-.268-1.779-.468-3.065-.468-2.93 0-4.53 1.035-4.53 1.567 0 .164.154.377.452.592.751.269 1.78.468 3.067.468 2.93 0 4.53-1.034 4.53-1.566 0-.164-.154-.377-.453-.593z" fill="#FDD44B"/><path d="M20.158 26.993c-1.093-.48-2.53-.745-4.045-.745-1.515 0-2.951.264-4.044.745-1.291.568-2.002 1.398-2.002 2.338 0 .94.711 1.77 2.002 2.338 1.093.48 2.53.745 4.044.745 1.516 0 2.952-.264 4.045-.745 1.291-.567 2.002-1.398 2.002-2.338 0-.94-.71-1.77-2.002-2.338zm-4.045 3.904c-2.93 0-4.53-1.034-4.53-1.566s1.6-1.566 4.53-1.566c2.931 0 4.53 1.035 4.53 1.566 0 .532-1.599 1.566-4.53 1.566z" fill="#3F2D20"/><path d="M34.493 4.478l-1.202-1.526a.758.758 0 00-1.065-.127l-12.024 9.471 7.236-9.948a.759.759 0 00-.168-1.06L25.7.145a.76.76 0 00-1.06.167L14.199 14.668H5.313a.787.787 0 00-.69.446l-3.2 6.46a.759.759 0 101.36.673l2.15-4.342L7.666 35.36c.057.37.375.641.749.641h15.4a.758.758 0 00.749-.641l2.73-17.454 2.152 4.342a.758.758 0 101.359-.673l-3.198-6.457c-.173-.33-.4-.449-.692-.449h-4.132l11.584-9.125a.759.759 0 00.127-1.065zM9.063 34.483l-2.21-14.126 1.838 3.81a.758.758 0 00.683.428h13.479a.758.758 0 00.683-.429l1.839-3.81-2.21 14.127H9.063zm13.314-11.405H9.85l-3.327-6.893h19.18l-3.327 6.893zm3.388-21.01l-9.164 12.6h-.526l9.345-12.85.345.25zm-5.434 12.6h-.689L32.568 4.486l.264.335-12.502 9.847z" fill="#3F2D20"/></g><defs><clipPath id="clip0"><path fill="#fff" d="M0 0h36v36H0z"/></clipPath></defs></svg>