<svg width="38" height="38" fill="none" xmlns="http://www.w3.org/2000/svg"><path d="M20.09 18.03h-2.776c-1.154 0-2.093-.954-2.093-2.127 0-1.172.94-2.126 2.093-2.126h4.901a.965.965 0 00.955-.97c0-.534-.43-.97-.955-.97h-2.554V9.856c0-.534-.43-.97-.955-.97a.965.965 0 00-.954.97v1.98h-.438c-2.204 0-4.002 1.828-4.002 4.067 0 2.24 1.798 4.067 4.002 4.067h2.777c1.154 0 2.093.954 2.093 2.127 0 1.172-.94 2.126-2.093 2.126h-4.989a.965.965 0 00-.955.97c0 .534.43.97.955.97h2.642v2.022c0 .533.43.97.954.97a.965.965 0 00.955-.97v-2.022h.487c2.18-.032 3.946-1.843 3.946-4.066 0-2.248-1.79-4.067-3.994-4.067z" fill="#146253"/><path d="M31.923 5.563C28.39 1.973 23.695 0 18.698 0c-4.996 0-9.69 1.973-13.224 5.563C1.941 9.153 0 13.923 0 19s1.941 9.848 5.474 13.437C9.007 36.027 13.702 38 18.698 38c4.997 0 9.692-1.973 13.225-5.563 3.532-3.59 5.474-8.36 5.474-13.437s-1.942-9.848-5.474-13.437zM18.698 36.06C9.445 36.06 1.91 28.403 1.91 19c0-9.403 7.535-17.06 16.788-17.06 9.254 0 16.79 7.657 16.79 17.06 0 9.403-7.536 17.06-16.79 17.06z" fill="#146253"/></svg>