<svg width="38" height="38" fill="none" xmlns="http://www.w3.org/2000/svg"><path d="M31.912 5.569C28.38 1.981 23.688.003 18.694.003S9.009 1.981 5.478 5.57C1.946 9.157 0 13.926 0 18.999c0 5.074 1.946 9.842 5.478 13.43 3.53 3.588 8.224 5.566 13.217 5.566 2.9 0 5.546-.547 7.647-1.571 1.992-.977 3.439-2.377 4.077-3.932.762-1.868.33-3.815-1.177-5.347l-.054-.055c.023-.031.054-.055.077-.078 1.077-1.15 1.077-2.658-.015-3.768l-2.662-2.705c-.523-.547-1.154-.844-1.823-.844-.67 0-1.308.29-1.847.836l-1.385 1.408c-.069-.04-.13-.07-.2-.102-.169-.086-.323-.164-.454-.25-1.407-.907-2.684-2.095-3.908-3.62-.538-.688-.907-1.274-1.184-1.852.346-.329.669-.665.984-.993.131-.14.27-.274.408-.415 1.13-1.149 1.13-2.634 0-3.783l-1.315-1.337a27.35 27.35 0 01-.447-.461 25.671 25.671 0 00-.915-.923c-.523-.523-1.147-.797-1.808-.797-.662 0-1.293.274-1.831.797l-.015.016L9.193 9.9a3.866 3.866 0 00-1.123 2.456c-.115 1.485.308 2.86.639 3.76.792 2.173 1.977 4.19 3.739 6.347 2.138 2.596 4.716 4.652 7.662 6.098 1.131.547 2.647 1.188 4.355 1.305.107.008.215.008.323.008 1.192 0 2.2-.438 2.985-1.305l.03-.032c.023-.031.054-.062.085-.094l.046.047c.985 1.001 1.254 2.142.777 3.307-.885 2.134-4.323 4.323-10.016 4.323C9.4 36.12 1.846 28.442 1.846 19c0-9.443 7.555-17.12 16.849-17.12 9.293 0 16.848 7.677 16.848 17.12 0 1.556-.208 3.088-.608 4.566a.942.942 0 00.646 1.156.924.924 0 001.139-.656A19.32 19.32 0 0037.397 19c-.008-5.073-1.954-9.842-5.485-13.43zm-5.509 21.724c-.438.477-.93.688-1.615.688-.07 0-.139 0-.208-.008-1.385-.093-2.693-.648-3.67-1.125-2.7-1.33-5.07-3.213-7.04-5.605-1.622-1.986-2.707-3.823-3.43-5.793-.431-1.188-.593-2.095-.531-2.955a1.97 1.97 0 01.592-1.282l1.654-1.673c.131-.125.331-.273.546-.273.216 0 .4.14.516.265l.023.024c.292.273.57.563.862.868.154.156.307.32.461.476l1.316 1.337c.408.415.408.72 0 1.134l-.416.422c-.407.414-.784.813-1.2 1.188-.015.008-.023.024-.038.04-.577.585-.377 1.195-.316 1.398.008.024.016.04.023.063.354.868.847 1.68 1.6 2.65l.008.008c1.354 1.696 2.778 3.01 4.355 4.026.207.133.415.242.615.344.17.086.323.164.454.25a1.308 1.308 0 00.685.196c.338 0 .654-.141.923-.423l1.654-1.68c.13-.133.323-.29.539-.29.2 0 .384.149.5.274l.015.015 2.662 2.705c.377.383.377.735-.016 1.15l-.007.007c-.177.196-.37.383-.577.587a14.36 14.36 0 00-.939.992z" fill="#146253"/></svg>