<svg width="38" height="28" fill="none" xmlns="http://www.w3.org/2000/svg"><path d="M28.435 9.329H.929a.94.94 0 00-.929.943v15.933a.94.94 0 00.929.944h27.506a.94.94 0 00.928-.944V10.272a.939.939 0 00-.928-.943zm-.93 15.933H1.858V11.216h25.649v14.046z" fill="#146253"/><path d="M6.254 19.159H8.56a.94.94 0 00.929-.944.94.94 0 00-.93-.944H6.255a.94.94 0 00-.93.944c0 .52.411.944.93.944zm26.19-14.085H4.938a.94.94 0 00-.929.944.94.94 0 00.929.944h26.577V21.95a.94.94 0 00.929.944.94.94 0 00.928-.944V6.018a.94.94 0 00-.928-.944z" fill="#146253"/><path d="M36.468.851H8.962a.94.94 0 00-.928.944.94.94 0 00.928.943H35.54v14.99a.94.94 0 00.928.943.94.94 0 00.929-.943V1.795a.939.939 0 00-.929-.944zM20.804 19.159h2.306a.94.94 0 00.929-.944.94.94 0 00-.929-.944h-2.306a.94.94 0 00-.93.944c0 .52.419.944.93.944zm-6.85.016h1.455c.364 0 .666.299.666.676a.666.666 0 01-.666.676h-2.608a.94.94 0 00-.929.944c0 .52.418.944.929.944h.952v.621c0 .52.418.944.928.944a.94.94 0 00.93-.944v-.63c1.292-.101 2.321-1.21 2.321-2.555 0-1.416-1.13-2.564-2.523-2.564h-1.455a.671.671 0 01-.666-.676.67.67 0 01.666-.676h2.562a.94.94 0 00.928-.944.94.94 0 00-.928-.944h-.906v-.598a.94.94 0 00-.928-.943.94.94 0 00-.93.944v.613c-1.292.102-2.321 1.211-2.321 2.556 0 1.407 1.13 2.556 2.523 2.556z" fill="#146253"/></svg>