<svg width="31" height="38" fill="none" xmlns="http://www.w3.org/2000/svg"><path d="M21.757 17.218a.92.92 0 00-1.316 0L9.619 28.223a.956.956 0 000 1.337.924.924 0 001.316 0l10.822-10.997a.965.965 0 000-1.345zm-2.006 6.561c-.851 0-1.656.338-2.268.951a3.299 3.299 0 000 4.602 3.16 3.16 0 002.268.952c.86 0 1.657-.339 2.268-.952a3.23 3.23 0 00.937-2.305c0-.873-.333-1.683-.936-2.305a3.133 3.133 0 00-2.269-.944zm.953 4.224a1.33 1.33 0 01-1.904 0 1.383 1.383 0 010-1.936 1.33 1.33 0 011.904 0c.255.26.394.598.394.968s-.147.708-.394.968zm-6.828-5.931a3.299 3.299 0 000-4.602 3.159 3.159 0 00-2.268-.952c-.851 0-1.657.338-2.268.952a3.299 3.299 0 000 4.602 3.159 3.159 0 002.268.951 3.16 3.16 0 002.268-.951zm-3.22-3.265c.255-.26.588-.4.952-.4s.697.14.952.4c.526.535.526 1.4 0 1.935-.255.26-.588.401-.952.401s-.697-.141-.952-.4a1.398 1.398 0 010-1.936z" fill="#146253"/><path d="M30.62 32.934L28.468 8.291a.928.928 0 00-.929-.858h-4.536C22.995 3.335 19.713 0 15.68 0S8.365 3.335 8.357 7.433H3.82a.94.94 0 00-.93.858L.74 32.934v.087C.74 35.766 3.224 38 6.274 38h18.811c3.05 0 5.535-2.234 5.535-4.98v-.086zM15.68 1.888c3.011 0 5.457 2.485 5.465 5.545h-10.93c.007-3.06 2.454-5.545 5.465-5.545zm9.405 34.216H6.275c-2.013 0-3.654-1.36-3.678-3.052l2.075-23.73h3.685v3.31c0 .52.418.944.929.944a.94.94 0 00.929-.943V9.32h10.93v3.312a.94.94 0 00.929.944.94.94 0 00.929-.944V9.32h3.684l2.075 23.74c-.023 1.682-1.664 3.043-3.677 3.043z" fill="#146253"/></svg>