<svg width="31" height="38" fill="none" xmlns="http://www.w3.org/2000/svg"><path d="M9.73 15.493a.937.937 0 00-.926-.941H1.377a.937.937 0 00-.926.941c0 .518.417.942.926.942h7.427c.51 0 .927-.424.927-.942zm20.29-.941h-7.427a.937.937 0 00-.927.941c0 .518.417.942.927.942h7.426c.51 0 .927-.424.927-.942a.932.932 0 00-.927-.941zM15.698 9.43c.51 0 .927-.424.927-.942V.941A.937.937 0 0015.698 0a.937.937 0 00-.926.941v7.547c0 .518.417.941.926.941zm4.872 2.055c.239 0 .47-.094.656-.275l5.257-5.342a.953.953 0 000-1.334.917.917 0 00-1.312 0l-5.258 5.343a.953.953 0 000 1.333c.186.18.425.275.657.275zm-10.4-.275a.922.922 0 001.313 0 .953.953 0 000-1.333L6.226 4.534a.917.917 0 00-1.313 0 .953.953 0 000 1.334l5.258 5.342z" fill="#146253"/><path d="M26.78 21.301a3.81 3.81 0 00-2.493-.95h-5.304v-3.804c0-1.82-.532-3.146-1.59-3.938-1.668-1.24-3.93-.541-4.03-.51a.94.94 0 00-.648.894v4.59c0 1.396-.657 2.58-1.961 3.53a7.85 7.85 0 01-2.131 1.09l-.093.024a1.883 1.883 0 00-1.428-.651h-3.52c-1.05 0-1.907.87-1.907 1.937V35.25c0 1.067.857 1.938 1.907 1.938h3.535c.464 0 .896-.173 1.22-.455a3.857 3.857 0 002.718 1.137h11.063c1.112 0 2.092-.274 2.84-.784.958-.66 1.553-1.703 1.723-3.036l1.428-9.022c.224-1.396-.286-2.824-1.328-3.726zM7.172 35.249a.053.053 0 01-.054.055H3.582a.053.053 0 01-.055-.055V23.513c0-.031.024-.055.055-.055h3.535c.031 0 .054.024.054.055V35.25zM26.28 24.737l-1.428 9.037c0 .008 0 .024-.008.04-.062.54-.262 2.18-2.725 2.18H11.055c-.989 0-1.853-.753-2.008-1.75a2.575 2.575 0 00-.023-.109V24.047l.054-.016c.016 0 .023-.008.039-.008.054-.016 1.366-.392 2.671-1.341 1.814-1.31 2.78-3.075 2.78-5.1V13.77c.509-.055 1.212-.031 1.729.353.556.416.834 1.232.834 2.416v4.746c0 .518.416.942.926.942h6.23c.463 0 .919.18 1.29.494.555.486.818 1.255.702 2.016z" fill="#146253"/></svg>