<svg width="38" height="38" fill="none" xmlns="http://www.w3.org/2000/svg"><path d="M37.16 20.96l-.608-1.5a1.243 1.243 0 010-.923l.608-1.5a3.163 3.163 0 00-.663-3.41l-1.137-1.139a1.212 1.212 0 01-.348-.85v-1.62c0-1.268-.742-2.408-1.903-2.889l-1.476-.618a1.165 1.165 0 01-.64-.65l-.607-1.508c-.482-1.171-1.595-1.933-2.843-1.933h-1.595a1.18 1.18 0 01-.837-.353L23.983.92a3.033 3.033 0 00-3.356-.674l-1.476.617c-.293.12-.616.12-.909 0L16.767.246A2.998 2.998 0 0015.59.005c-.821 0-1.595.329-2.18.915l-1.128 1.147a1.174 1.174 0 01-.837.353H9.85a3.07 3.07 0 00-2.843 1.933l-.607 1.5c-.119.297-.348.53-.64.65l-1.476.618A3.128 3.128 0 002.38 10.01v1.62c0 .322-.127.627-.348.851L.904 13.627a3.166 3.166 0 00-.67 3.41l.607 1.5c.119.297.119.626 0 .923l-.608 1.5a3.178 3.178 0 00.663 3.41l1.145 1.147c.221.225.348.53.348.85v1.621c0 1.268.742 2.407 1.902 2.888l1.477.618c.292.12.521.353.64.65l.607 1.5c.482 1.171 1.595 1.934 2.843 1.934h1.595c.315 0 .615.128.836.353l1.13 1.147a3.033 3.033 0 003.355.674l1.476-.618c.293-.12.616-.12.908 0l1.477.618c.379.16.774.24 1.176.24.821 0 1.595-.328 2.18-.914l1.128-1.147c.221-.225.521-.353.837-.353h1.595a3.07 3.07 0 002.843-1.934l.608-1.5c.118-.297.347-.53.639-.65l1.476-.618a3.128 3.128 0 001.903-2.888v-1.62c0-.321.127-.626.348-.85l1.129-1.148a3.178 3.178 0 00.663-3.41zm-2.006 2.046l-1.129 1.147a3.118 3.118 0 00-.9 2.215v1.62c0 .49-.284.923-.734 1.107l-1.476.618a3.1 3.1 0 00-1.666 1.693l-.608 1.5c-.182.45-.616.746-1.09.746h-1.595c-.82 0-1.595.33-2.179.915l-1.129 1.147a1.174 1.174 0 01-1.287.265l-1.476-.618a2.998 2.998 0 00-2.353 0l-1.477.618c-.142.064-.3.088-.45.088-.315 0-.615-.128-.836-.353l-1.13-1.147a3.02 3.02 0 00-2.179-.915H9.866c-.482 0-.908-.289-1.09-.746l-.608-1.5a3.101 3.101 0 00-1.666-1.693l-1.476-.618a1.204 1.204 0 01-.735-1.107v-1.62c0-.835-.323-1.621-.9-2.215l-1.129-1.147a1.198 1.198 0 01-.252-1.308l.608-1.5a3.14 3.14 0 000-2.39l-.608-1.5a1.2 1.2 0 01.26-1.309l1.13-1.147c.584-.594.9-1.38.9-2.214v-1.62c0-.49.284-.923.734-1.108l1.476-.618A3.102 3.102 0 008.176 6.6l.608-1.5c.181-.45.616-.747 1.09-.747h1.594c.821 0 1.595-.329 2.18-.914l1.129-1.148a1.174 1.174 0 011.286-.264l1.477.617a2.998 2.998 0 002.353 0l1.476-.617a1.174 1.174 0 011.287.265l1.13 1.147a3.033 3.033 0 002.178.914h1.58c.48 0 .907.29 1.089.746l.608 1.5c.316.77.908 1.372 1.666 1.693l1.476.618c.442.185.734.626.734 1.107v1.62c0 .835.324 1.621.9 2.215L35.148 15c.339.345.442.859.252 1.308l-.608 1.5a3.135 3.135 0 000 2.391l.608 1.5c.197.45.095.963-.245 1.308z" fill="#146253"/><path d="M20.082 18.025h-2.755c-1.145 0-2.077-.946-2.077-2.11 0-1.163.932-2.11 2.077-2.11h4.863a.958.958 0 00.948-.962.958.958 0 00-.948-.963h-2.542V9.914a.958.958 0 00-.947-.962.958.958 0 00-.948.962v1.966h-.434c-2.187 0-3.972 1.805-3.972 4.035 0 2.23 1.785 4.036 3.972 4.036h2.755c1.145 0 2.077.946 2.077 2.11 0 1.163-.932 2.11-2.077 2.11h-4.95a.958.958 0 00-.948.962c0 .53.427.963.948.963h2.629v2.006c0 .53.426.962.948.962a.958.958 0 00.947-.962v-2.006h.481c2.164-.032 3.917-1.83 3.917-4.035 0-2.23-1.777-4.036-3.964-4.036z" fill="#146253"/></svg>