<svg width="38" height="24" fill="none" xmlns="http://www.w3.org/2000/svg"><path d="M35.903 8.646c-.932-1.017-2.25-1.58-3.713-1.58h-3.366V5.264c0-.031 0-.063-.008-.086 0-.016-.008-.031-.008-.04 0-.015-.007-.03-.007-.046s-.008-.032-.008-.047c0-.016-.008-.032-.008-.04-.008-.015-.008-.03-.015-.046-.008-.016-.008-.032-.016-.04-.007-.015-.015-.023-.015-.039a.172.172 0 00-.023-.039c-.008-.015-.015-.023-.023-.039a.172.172 0 00-.023-.039.137.137 0 00-.031-.04c-.008-.007-.015-.023-.023-.03a.44.44 0 00-.054-.063l-.008-.008-3.481-3.569a.907.907 0 00-.655-.274h-9.544a.94.94 0 00-.655.274l-3.481 3.538-.008.008c-.023.023-.039.039-.054.062-.008.008-.015.024-.023.032-.008.015-.023.023-.03.039a.172.172 0 01-.024.039c-.008.015-.015.023-.023.039a.172.172 0 01-.023.04c-.008.015-.016.023-.016.038-.007.016-.007.032-.015.04-.008.015-.008.03-.015.046-.008.016-.008.032-.008.04-.008.015-.008.03-.008.046s-.008.032-.008.047c0 .016-.007.032-.007.04 0 .03-.008.062-.008.086V20.08c0 .517.416.94.925.94h2.433c.316 1.26 1.449 2.199 2.781 2.199 1.333 0 2.465-.94 2.78-2.2h9.753c.315 1.26 1.448 2.2 2.78 2.2 1.34 0 2.465-.94 2.78-2.2h1.773a.935.935 0 00.924-.939V13.1c.008-1.824-.508-3.374-1.494-4.454zm-10.23-4.32H20.46v-1.66h3.574l1.64 1.66zM15.26 2.659h3.35v1.659h-4.983l1.633-1.66zm-2.942 3.545h14.658v12.962H19.25a2.874 2.874 0 00-2.634-1.761 2.871 2.871 0 00-2.642 1.768c-.039-.007-.077-.007-.123-.007h-1.533V6.204zm4.298 15.161c-.562 0-1.024-.47-1.024-1.041s.462-1.041 1.024-1.041 1.024.47 1.024 1.041-.462 1.041-1.024 1.041zm15.313 0c-.562 0-1.024-.47-1.024-1.041s.462-1.041 1.024-1.041 1.024.47 1.024 1.041-.454 1.041-1.024 1.041zm3.628-2.2h-.986a2.874 2.874 0 00-2.634-1.76 2.874 2.874 0 00-2.635 1.76h-.47V8.945h3.366c2.111 0 3.367 1.565 3.367 4.187v6.035h-.008zM8.796 8.09h-5.06a.935.935 0 00-.925.94c0 .516.416.939.925.939h5.06a.935.935 0 00.925-.94.935.935 0 00-.925-.939zm.001 3.656H.924a.935.935 0 00-.924.939c0 .516.416.94.924.94h7.873a.935.935 0 00.924-.94.935.935 0 00-.924-.94zM8.796 15.4h-5.06a.935.935 0 00-.925.94c0 .517.416.94.925.94h5.06a.935.935 0 00.925-.94.935.935 0 00-.925-.94z" fill="#146253"/></svg>