<svg width="36" height="38" fill="none" xmlns="http://www.w3.org/2000/svg"><path d="M19.197 12.44h2.468c.979 0 1.78.807 1.78 1.81 0 1.003-.794 1.81-1.78 1.81h-4.427a.936.936 0 00-.925.94c0 .517.416.94.925.94h2.275v1.716c0 .518.416.94.925.94a.936.936 0 00.926-.94V17.94h.3c2.005 0 3.633-1.653 3.633-3.69s-1.628-3.69-3.633-3.69h-2.467c-.98 0-1.781-.808-1.781-1.811s.794-1.81 1.78-1.81h4.35a.936.936 0 00.925-.94.936.936 0 00-.925-.94h-2.19V3.381a.936.936 0 00-.925-.94.936.936 0 00-.926.94v1.684h-.308c-2.005 0-3.632 1.654-3.632 3.69 0 2.03 1.627 3.684 3.632 3.684z" fill="#146253"/><path d="M10.182 24.946h20.736c2.29 0 4.149-1.897 4.149-4.216v-8.878a.936.936 0 00-.926-.94.936.936 0 00-.925.94v8.87c0 1.293-1.033 2.335-2.298 2.335H10.182c-1.272 0-2.298-1.05-2.298-2.335V3.39c0-.032 0-.071-.008-.102v-.024c0-.024-.007-.047-.007-.063a.147.147 0 00-.016-.055c0-.007-.008-.023-.008-.03-.007-.024-.015-.04-.023-.064 0-.007-.007-.015-.007-.023-.008-.016-.016-.04-.024-.055-.007-.008-.007-.016-.015-.031l-.023-.047c-.008-.008-.016-.024-.023-.032-.008-.007-.016-.023-.023-.031a.17.17 0 00-.031-.04l-.023-.023c-.016-.015-.023-.031-.039-.047-.008-.007-.015-.015-.023-.015a.205.205 0 00-.046-.04c-.008-.007-.016-.015-.023-.015a.161.161 0 00-.047-.032c-.015-.015-.038-.023-.054-.03-.007-.009-.015-.009-.023-.017-.03-.015-.062-.03-.085-.047L1.615.075A.918.918 0 00.404.576a.947.947 0 00.493 1.23l5.129 2.202v23.32c0 2.21 1.673 4.02 3.801 4.2a4.186 4.186 0 00-.686 2.303c0 2.296 1.843 4.169 4.102 4.169 2.26 0 4.103-1.873 4.103-4.169 0-.846-.247-1.63-.671-2.288h9.817a4.206 4.206 0 00-.671 2.288c0 2.296 1.843 4.169 4.102 4.169 2.26 0 4.103-1.873 4.103-4.169 0-2.296-1.843-4.168-4.103-4.168H10.182c-1.272 0-2.298-1.05-2.298-2.335v-3.095c.655.446 1.45.713 2.298.713zm5.313 8.885c0 1.262-1.01 2.288-2.252 2.288-1.241 0-2.251-1.026-2.251-2.288 0-1.261 1.01-2.288 2.251-2.288 1.242 0 2.252 1.027 2.252 2.288zm16.672 0c0 1.262-1.01 2.288-2.252 2.288-1.241 0-2.251-1.026-2.251-2.288 0-1.261 1.01-2.288 2.252-2.288 1.241 0 2.251 1.027 2.251 2.288z" fill="#146253"/></svg>