<svg width="36" height="36" fill="none" xmlns="http://www.w3.org/2000/svg"><g clip-path="url(#clip0)"><path d="M28.147 1.17L26.109.613l-5.8 17.092 2.037.557 5.8-17.092z" fill="#80B08D"/><path d="M22.348 18.874a.797.797 0 01-.198-.026l-2.04-.557a.71.71 0 01-.235-.113.632.632 0 01-.17-.185.566.566 0 01-.05-.466L25.45.435a.594.594 0 01.126-.211.67.67 0 01.206-.152.74.74 0 01.52-.045l2.037.556c.086.023.166.06.236.111.07.05.128.113.171.183a.56.56 0 01.05.466L23 18.437a.617.617 0 01-.246.315.735.735 0 01-.407.122zm-1.186-1.576l.733.204 5.402-15.926-.732-.204-5.403 15.926z" fill="#3F2D20"/><path d="M11.31 17.033c.973-.72 2.441-1.6 4.305-1.585 2.3.018 3.35 1.388 5.683 2.03 1.55.427 2.64.734 6.102-.616-.999 6.077-1.695 12.035-2.694 18.109l-10.806.048c-.75-5.991-1.836-11.99-2.59-17.986z" fill="#EF8829"/><path d="M26.268 18.375c-.896-.657-2.247-1.461-3.962-1.447-2.116.016-3.08 1.267-5.228 1.854-1.425.389-2.427.67-5.612-.564.918 5.549 1.56 10.986 2.478 16.534l9.94.042c.69-5.473 1.69-10.946 2.384-16.419z" fill="#FDD44B"/><path d="M24.67 36H12.33a.912.912 0 01-.56-.19.746.746 0 01-.285-.474l-3.478-23.38a.69.69 0 01.03-.322.747.747 0 01.176-.284.852.852 0 01.29-.192.936.936 0 01.355-.067h19.29a.93.93 0 01.352.068c.11.045.21.111.289.193.08.082.14.178.175.283a.689.689 0 01.029.322l-3.478 23.38a.745.745 0 01-.284.473.91.91 0 01-.56.19zm-11.592-1.53h10.847l3.25-21.85H9.825l3.253 21.85z" fill="#3F2D20"/></g><defs><clipPath id="clip0"><path fill="#fff" d="M0 0h36v36H0z"/></clipPath></defs></svg>