<svg width="37" height="37" fill="none" xmlns="http://www.w3.org/2000/svg"><g clip-path="url(#clip0)"><path d="M6.608 16.76a.687.687 0 00-.479.198.684.684 0 00-.198.48c0 .178.073.352.198.478a.684.684 0 00.48.199.682.682 0 00.676-.677.68.68 0 00-.677-.677zm18.68.61c-1.903-1.098-4.848-2.354-10.794-2.354h-.154a.677.677 0 00.002 1.354h.003c5.725-.022 8.494 1.15 10.267 2.173a.674.674 0 00.925-.248.677.677 0 00-.248-.925z" fill="#3F2D20"/><path d="M26.41 16.235l.091.06-.09-.06zm.33.225l.045.033-.045-.032zm-.625-.41zm-.703-.384l.082.041-.082-.04zm2.443 1.84zm-.163-.198l.047.057c-.015-.019-.03-.038-.047-.056zm-2.652-1.821zm2.475 1.631l-.06-.058.06.058zm-.511-.456c.027.02.052.042.078.064l-.078-.064zm.229.192zm-1.422-.978l.075.042-.075-.042zM5.943 17.555zm18.733-2.229l.11.048-.11-.048zM7.191 17.1c-.007-.012-.012-.025-.02-.037.008.012.013.025.02.036zm20.758.536c-.625-.431-1.396-.832-2.29-1.185-2.512-.991-5.784-1.537-9.213-1.537-.642 0-1.27.037-1.884.103 5.9.01 8.83 1.26 10.726 2.353a.677.677 0 01-.338 1.263c-.115 0-.231-.062-.338-.124-1.773-1.022-4.542-2.206-10.267-2.206h-.003c-.373 0-.675-.268-.677-.64a.653.653 0 01.404-.605l-.003.01c-2.702.36-5.058 1.32-6.699 2.103-.045.022-.088.123-.132.123.032 0 .05.112.05.2a.617.617 0 01-.199.45.668.668 0 01-.478.184.69.69 0 01-.48-.205.699.699 0 01-.088-.117c-1.163.648-1.992 1.247-2.464 1.655.673.45 1.496.948 2.446 1.432a23.1 23.1 0 002.317 1.024c2.744-1.252 2.401-3.27 2.385-3.358a.674.674 0 01.524-.798.68.68 0 01.802.527c.197.94-.053 2.815-1.992 4.197 1.513.431 3.219.732 5.034.732 3.43 0 6.701-.545 9.212-1.536 2.232-.88 3.692-2.06 4.042-3.254a2.713 2.713 0 00-.397-.791zm-13.774-2.59l.045-.014c-.016.003-.03.01-.045.014zm-8.199 2.626zm-3.731.819l-.054-.043.054.043zm.268.209zm1.033.74zm-.214-.146z" fill="#84BD93"/><path d="M20.124 11.277c-1.443.097-3.445.353-5.29 1.009-.094.001-.186.008-.28.01.18-.005.357-.013.538-.013 1.715 0 3.395.133 4.975.385l.086-2.103-.029.712zm-7.874 1.219zm1.757-.179c-.126.007-.25.018-.375.028.125-.01.25-.02.375-.028zm-.889.071c-.157.016-.31.037-.464.057.154-.02.308-.041.464-.057z" fill="#FDD44B"/><path d="M30.17 18.983l-.045-.06.044.06zm-.137-.191zm.337.443l-.048-.055.047.055zm.342.379c.03.03.058.06.089.089l-.089-.089zm-.132-.139l-.077-.084.077.084zm-.664-.861l-.03-.048.03.048zm4.518-.05c-.033-.153 0-.275 0-.276l.431-2.06c-2.284.723-3.355 2.257-3.707 2.88.247.436.85 1.325 1.98 2.066a7.993 7.993 0 001.938.46l-.641-3.069v-.002zm-2.359 2.109l-.135-.082.135.082zm-1.03-.743c-.027-.023-.05-.046-.076-.07l.076.07zm1.948 1.19c-.054-.023-.11-.044-.162-.067.053.023.108.044.162.066zm-.483-.215l-.12-.06.12.06zm-.777-.447zm-.323-.231c-.036-.027-.073-.054-.107-.081.034.027.071.054.107.081z" fill="#84BD93"/><path d="M13.002 24.431c.078.01.11.02.19.03.26.59.724 1.297 1.624 1.754v-1.647c-.45-.012-1.192-.06-1.814-.137zm-.362-.027z" fill="#FDD44B"/><path d="M35.789 18.427l.794-3.803a.676.676 0 00-.678-.815c-3.751.086-5.794 1.915-6.76 3.177-.787-1.195-2.278-2.258-4.344-3.072a21.327 21.327 0 00-3.39-.998l.124-2.996a.677.677 0 00-.648-.704c-.367-.015-8.908-.317-12.26 4.13a25.89 25.89 0 00-3.475 1.408c-1.566.77-3.761 2.172-4.517 3.175-.255.34-.37.582.025.977.936.934 4.778 3.869 9.886 5.106.09.405.273 1.004.647 1.616.6.982 1.814 2.193 4.19 2.391a.678.678 0 00.733-.675v-2.79c3.221-.1 6.274-.662 8.685-1.613 2.066-.816 3.557-1.878 4.344-3.073.966 1.262 3.009 3.091 6.76 3.177h.016a.677.677 0 00.663-.815l-.795-3.803zm-.713-3.207l-.641 3.068c0 .001-.034.123 0 .276v.002l.64 3.068c-3.382-.38-4.848-2.459-5.27-3.207.424-.75 1.89-2.828 5.27-3.207zm-10.771 6.46c-2.512.99-5.784 1.537-9.213 1.537-1.815 0-3.52-.302-5.034-.733 1.94-1.381 2.19-3.257 1.992-4.197a.68.68 0 00-.802-.527.674.674 0 00-.524.798c.016.088.36 2.106-2.385 3.357a23.113 23.113 0 01-2.317-1.024c-1.881-.958-3.268-1.975-3.97-2.557.559-.525 1.903-1.512 3.961-2.494 2.108-1.005 5.395-2.204 9.079-2.204 3.43 0 6.701.545 9.212 1.536 2.232.88 3.692 2.059 4.042 3.254-.35 1.195-1.81 2.374-4.041 3.254zm-9.543 4.88c-1.679-.372-2.405-1.45-2.716-2.244.878.145 1.785.234 2.716.251v1.993zm5.305-13.893a31.752 31.752 0 00-4.975-.385c-1.288 0-2.528.135-3.694.355 2.844-1.815 7.112-2.053 8.756-2.073l-.087 2.103z" fill="#3F2D20"/></g><defs><clipPath id="clip0"><path fill="#fff" transform="translate(.402 .402)" d="M0 0h36.196v36.196H0z"/></clipPath></defs></svg>