<svg width="36" height="36" fill="none" xmlns="http://www.w3.org/2000/svg"><path d="M10.135 21.113c-.565-.421-1.012-.754-1.97-.754s-1.405.333-1.97.754c-.29.217-.613.456-1.017.654.077.01.155.017.235.017h5.773c-.42-.201-.752-.448-1.05-.67zm9.835 0c-.565-.421-1.011-.754-1.97-.754-.957 0-1.404.333-1.97.754-.298.223-.63.47-1.05.671h6.041c-.42-.201-.752-.448-1.05-.67zm7.865-.753c-.957 0-1.404.332-1.97.753-.297.223-.63.47-1.05.671h5.772c.08 0 .157-.007.234-.017-.403-.198-.726-.438-1.016-.654-.565-.421-1.012-.754-1.97-.754z" fill="#EF8829"/><path d="M30.587 18.152H7.05c-.912 0-1.665.706-1.778 1.587-.018.013-.037.038-.055.051.645-.48 1.447-1.073 2.948-1.073s2.303.6 2.948 1.082c.566.42 1.012.755 1.97.755s1.405-.332 1.97-.753c.645-.481 1.447-1.079 2.948-1.079 1.5 0 2.303.598 2.947 1.08.566.42 1.012.753 1.97.753s1.405-.332 1.97-.754c.645-.48 1.447-1.078 2.948-1.078 1.5 0 2.303.598 2.947 1.078.468.349.855.636 1.516.725.053-.17.082-.371.082-.558 0-.989-.805-1.816-1.794-1.816z" fill="#84BD93"/><path d="M31.887 23.527c.034.013.066.029.099.045-.033-.016-.065-.032-.099-.045zm.24.121zm.393.356c.025.032.052.062.075.096-.023-.034-.05-.064-.075-.096zm.171.274zm-1.067-.828c.03.005.06.015.09.023-.03-.008-.06-.018-.09-.024zm.803.44c-.028-.029-.058-.055-.088-.082.03.027.06.053.088.082zM3.211 25.289c-.007-.03-.017-.06-.023-.09.006.03.016.06.023.09zm.975 1.044zm-.346-.163c-.035-.023-.066-.05-.098-.075.032.025.063.052.097.075zm28.951-1.691c-.114-.028-.234-.123-.357-.123H5.748c-.826 0-1.498.75-1.498 1.575 0 .124.017.286.046.401.116.03.236.092.361.092h26.686c.826 0 1.498-.715 1.498-1.54 0-.126-.02-.289-.05-.405zM3.547 25.914c.027.03.053.06.082.088-.029-.027-.055-.058-.082-.088zm-.237-.352a1.794 1.794 0 01-.045-.1c.014.034.03.067.045.1zm.141.236z" fill="#CE593F"/><path d="M32.51 28.057H5.127c-1.725 0-1.854.418-1.854 1.15 0 1.26.831 2.224 1.854 2.224H32.51c1.022 0 1.854-.963 1.854-2.224 0-.732-.13-1.15-1.854-1.15zM2.366 15.75l.046.049-.046-.049zM30.23 7.67c.055.035.107.071.16.107l-.16-.108zM1.7 14.511zm-.042-.249l-.01-.075.01.075zm30.575-4.971l-.12-.124.12.124zm.229.239l.148.167c-.05-.056-.097-.112-.148-.167zm-1.304-1.195zM1.763 14.743l-.022-.075.022.075zm29.83-6.051c.051.045.104.088.153.133-.05-.045-.102-.088-.153-.133zm-.887-.696zM2.84 16.142zm-.996-1.179l-.011-.03.011.03zm1.406 1.396l-.08-.037.08.037zM32.715 9.82a14.09 14.09 0 00-1.35-.917C28.245 7.03 24.08 6 19.636 6c-4.443 0-8.608 1.031-11.728 2.903-2.99 1.793-4.635 4.133-4.635 6.588 0 .331.062.574.175.866.254.082.525.054.806.054h27.491c1.444 0 2.619-1.1 2.619-2.544 0-1.443-.573-2.77-1.65-4.047zM9.3 13.146a.825.825 0 01-.578.239.827.827 0 01-.579-.24.824.824 0 01-.24-.579.823.823 0 01.819-.818.82.82 0 01.578 1.398zm4.881-4.124a.823.823 0 01-1.156 0 .821.821 0 01.578-1.397.82.82 0 01.579 1.397zm4.398 4.124a.83.83 0 01-.58.239.827.827 0 01-.578-.24.824.824 0 01-.24-.579.823.823 0 01.819-.818c.215 0 .426.087.579.24a.826.826 0 01.239.578.827.827 0 01-.239.58zm4.395-4.124a.822.822 0 01-1.156 0 .821.821 0 01.578-1.397.82.82 0 01.578 1.397zm4.882 4.124a.823.823 0 01-1.156 0 .824.824 0 01-.24-.58.823.823 0 01.818-.818.818.818 0 01.578 1.398zM3.042 16.26l-.09-.05.09.05zm-1.059-1.022c-.013-.023-.027-.045-.039-.068.012.023.026.045.04.068zm.131.206zm.531.558c-.024-.018-.048-.036-.07-.056.022.02.046.037.07.056zm-.389-.372l-.056-.07.056.07z" fill="#FDD44B"/><path d="M8.721 11.748a.823.823 0 00-.818.818c0 .216.088.427.24.58a.827.827 0 00.578.238.825.825 0 00.579-.238.824.824 0 00.24-.58.824.824 0 00-.819-.818zm9.279 0a.823.823 0 00-.818.818c0 .216.087.427.24.58a.827.827 0 00.578.238.83.83 0 00.58-.238.827.827 0 00.238-.58.827.827 0 00-.239-.578.826.826 0 00-.58-.24zm9.278 0a.823.823 0 00-.818.818c0 .216.087.427.24.58a.823.823 0 001.157 0 .824.824 0 00.24-.58.824.824 0 00-.82-.818zM13.603 7.625a.82.82 0 00-.818.818c0 .216.087.426.24.579a.822.822 0 001.156 0 .821.821 0 00-.578-1.397zm8.793 0a.823.823 0 00-.818.818c0 .216.087.426.24.579a.822.822 0 001.156 0 .822.822 0 00-.578-1.397z" fill="#3F2D20"/><path d="M34.004 26.569a3.11 3.11 0 00.473-1.65 3.135 3.135 0 00-1.379-2.596 3.416 3.416 0 00.205-4.423A4.26 4.26 0 0036 13.942c0-3.053-1.928-5.89-5.43-7.992C27.2 3.928 22.735 2.814 18 2.814c-4.736 0-9.2 1.114-12.57 3.136C1.928 8.051 0 10.89 0 13.941A4.26 4.26 0 002.696 17.9a3.415 3.415 0 00.206 4.423 3.133 3.133 0 00-1.38 2.596c0 .606.175 1.171.474 1.65C1.019 26.822 0 27.49 0 29.265c0 2.163 1.566 3.922 3.49 3.922h29.02c1.924 0 3.49-1.76 3.49-3.922 0-1.774-1.019-2.443-1.996-2.695zm-1.494 4.98H3.49c-1.022 0-1.854-1.025-1.854-2.285 0-.732.13-1.212 1.854-1.212h29.02c1.724 0 1.854.48 1.854 1.212 0 1.26-.832 2.286-1.854 2.286zm-1.923-9.765h-5.772c.42-.201.752-.448 1.05-.67.566-.422 1.013-.755 1.97-.755.958 0 1.405.333 1.97.754.29.216.613.456 1.016.654-.077.01-.155.017-.234.017zm-15.607 0c.42-.201.753-.448 1.05-.67.566-.422 1.013-.755 1.97-.755.959 0 1.405.333 1.97.754.299.223.632.47 1.051.671h-6.04zm-9.567 0c-.08 0-.158-.007-.235-.017.404-.198.727-.438 1.017-.654.566-.421 1.012-.754 1.97-.754s1.405.333 1.97.754c.299.223.632.47 1.051.671H5.413zM32.3 20.526c-.661-.09-1.048-.376-1.516-.725-.645-.48-1.447-1.078-2.948-1.078-1.5 0-2.303.598-2.947 1.078-.566.422-1.012.754-1.97.754s-1.404-.332-1.97-.754c-.644-.48-1.447-1.078-2.947-1.078-1.501 0-2.303.598-2.948 1.078-.565.422-1.012.754-1.97.754s-1.404-.332-1.97-.754c-.645-.48-1.447-1.078-2.948-1.078-1.5 0-2.303.598-2.948 1.078-.467.349-.854.636-1.516.725a1.796 1.796 0 011.712-2.33h25.174a1.796 1.796 0 011.712 2.33zm-.553-3.966H4.255a2.621 2.621 0 01-2.619-2.619c0-2.455 1.646-4.794 4.635-6.588C9.391 5.482 13.557 4.451 18 4.451s8.608 1.03 11.728 2.902c2.99 1.794 4.636 4.133 4.636 6.588a2.621 2.621 0 01-2.618 2.619zm-27.09 6.86h26.687a1.5 1.5 0 011.497 1.498 1.5 1.5 0 01-1.497 1.498H4.657a1.5 1.5 0 01-1.498-1.498 1.5 1.5 0 011.498-1.497z" fill="#3F2D20"/></svg>