<svg width="22" height="21" fill="none" xmlns="http://www.w3.org/2000/svg"><g clip-path="url(#clip0)" fill="#ACACAC"><path d="M12.978 10.5a2.01 2.01 0 11-4.02 0 2.01 2.01 0 014.02 0z"/><path d="M15.668 6.944a1.868 1.868 0 00-.45-.693 1.867 1.867 0 00-.694-.451c-.212-.083-.532-.18-1.12-.208-.635-.029-.826-.035-2.436-.035-1.61 0-1.8.006-2.436.035-.588.027-.907.125-1.12.208-.262.096-.499.25-.693.45a1.87 1.87 0 00-.451.694c-.083.213-.18.532-.208 1.12-.029.635-.035.826-.035 2.436 0 1.61.006 1.8.035 2.437.027.587.125.907.208 1.119.097.262.25.499.45.693.195.2.432.355.694.451.213.083.532.181 1.12.208.635.029.826.035 2.436.035 1.61 0 1.8-.006 2.436-.035.588-.027.908-.125 1.12-.208a1.996 1.996 0 001.144-1.144c.083-.212.18-.532.208-1.12.029-.635.035-.826.035-2.436 0-1.61-.006-1.8-.035-2.436-.027-.588-.125-.907-.208-1.12zm-4.7 6.652a3.096 3.096 0 110-6.192 3.096 3.096 0 010 6.192zm3.219-5.59a.724.724 0 110-1.448.724.724 0 010 1.447z"/><path d="M10.968 0C5.17 0 .468 4.702.468 10.5S5.17 21 10.968 21s10.5-4.702 10.5-10.5S16.766 0 10.968 0zm5.993 12.986c-.03.642-.131 1.08-.28 1.463a3.083 3.083 0 01-1.764 1.764c-.383.149-.821.25-1.463.28-.643.03-.848.036-2.486.036-1.637 0-1.843-.007-2.486-.036-.641-.03-1.08-.131-1.463-.28a2.954 2.954 0 01-1.068-.696 2.955 2.955 0 01-.695-1.068c-.15-.383-.252-.821-.28-1.463-.03-.643-.037-.849-.037-2.486 0-1.637.007-1.843.036-2.486.03-.642.131-1.08.28-1.463.152-.403.39-.767.696-1.068a2.953 2.953 0 011.068-.696c.383-.149.821-.25 1.463-.28.643-.03.849-.036 2.486-.036 1.637 0 1.843.007 2.486.036.642.03 1.08.131 1.463.28.403.152.767.389 1.068.696.307.301.544.665.696 1.068.149.383.25.821.28 1.463.03.643.036.849.036 2.486 0 1.637-.006 1.843-.036 2.486z"/></g><defs><clipPath id="clip0"><path fill="#fff" transform="translate(.468)" d="M0 0h21v21H0z"/></clipPath></defs></svg>