<svg width="36" height="36" fill="none" xmlns="http://www.w3.org/2000/svg"><path d="M24.708 1.639l.11.82-.658 4.736h1.315l-.767-5.556zm3.385 9.786c.03.02.059.041.087.063-.028-.022-.056-.044-.087-.063zm.33.306zm-.535-.412c.03.012.06.028.089.043-.03-.015-.058-.03-.089-.043zM20.407 33.5c-.007-.026-.017-.052-.022-.079.005.027.015.053.022.079zm8.135-21.576zm-.189-.277zm.272.49zm-.962-.886c.027.006.052.015.079.022-.027-.007-.052-.016-.08-.022zm-6.488 23.103zm-.679-.619c-.015-.03-.03-.058-.043-.088.012.03.028.059.043.088zm2.431-15.331h5.857v-5.917c0-.07-.06-.13-.072-.195a1.984 1.984 0 00-.25-.01H22.66c-.695 0-1.35.55-1.35 1.245V34.22c0 .068.052.108.063.173.066.01.177-.006.247-.006h5.8c.695 0 1.363-.513 1.363-1.208v-6.057h-5.857c-.43 0-.889-.29-.889-.722v-7.134c0-.43.459-.862.89-.862zm-1.526 16.014c-.044-.008-.087-.021-.13-.034.043.013.085.026.13.034zm-.779-.48c-.022-.028-.044-.056-.063-.087.02.03.04.059.063.087zm.076.092zm.268.221z" fill="#FDD44B"/><path d="M15.051 11.425c.03.02.059.04.087.063-.028-.022-.056-.044-.087-.063zm-.204-.106c.03.012.059.028.088.043-.03-.015-.058-.03-.088-.043zm.535.413zm.202.407zm-.274-.493zM7.365 33.5c-.007-.026-.016-.052-.022-.079.006.027.015.053.022.079zm8.136-21.575zm-.88-.674c.027.006.052.015.079.022-.027-.007-.052-.016-.079-.022zM8.133 34.354zm.227.064c-.045-.008-.088-.021-.131-.034.043.013.086.026.13.034zm1.526-16.014h5.717v-5.917c0-.07.009-.13-.002-.195a1.035 1.035 0 00-.182-.01h-5.8c-.695 0-1.28.55-1.28 1.245V34.22c0 .068.017.108.027.173.067.01.144-.006.213-.006h5.8c.695 0 1.224-.513 1.224-1.208v-6.057H9.886c-.431 0-.717-.29-.717-.722v-7.134c0-.43.286-.862.717-.862zM7.925 34.251zm-.471-.516c-.015-.029-.03-.058-.043-.088.012.03.028.059.043.088zm.126.203zm.076.092z" fill="#CE593F"/><path d="M28.784 21.206h-4.047v4.463h4.047v-4.463zm-13.18 0h-4.048v4.463h4.048v-4.463z" fill="#EF8829"/><path d="M11.667 1.639l.109.82-.658 4.736h1.315l-.766-5.556zM9.688 9.064h-.519v.83h.519v-.83zm4.359-.466v.466h-.312v.83h.312V8.598zm-2.283.466h-.208v.83h.208v-.83z" fill="#CE593F"/><path d="M22.557 9.064h-.207v.83h.207v-.83zm4.67-.466v.466h-.518v.83h.518V8.598zm-2.283.466h-.519v.83h.52v-.83z" fill="#FDD44B"/><path d="M15.545 9.92V7.818a.78.78 0 00-.78-.78h-.756L13.118.672A.78.78 0 0012.345 0h-1.732a.78.78 0 00-.772.672L8.95 7.038h-.756a.78.78 0 00-.78.78V9.92a2.824 2.824 0 00-1.655 2.567v20.692A2.824 2.824 0 008.579 36h5.8a2.824 2.824 0 002.82-2.82V12.486c0-1.14-.679-2.123-1.654-2.567zm.095 23.26c0 .694-.566 1.26-1.26 1.26H8.579c-.695 0-1.26-.566-1.26-1.26V12.486c0-.695.565-1.26 1.26-1.26h5.8c.695 0 1.26.565 1.26 1.26v5.999H9.886a.78.78 0 00-.78.78V26.4c0 .431.349.78.78.78h5.754v6zM8.973 8.597h.612v1.069h-.612V8.598zm1.551-1.56l.767-5.478h.374l.767 5.478h-1.908zm1.287 1.56v1.069h-.665V8.598h.665zm1.56 0h.613v1.069h-.613V8.598zm2.268 11.448v5.574h-4.974v-5.574h4.973zM28.587 9.92V7.818a.78.78 0 00-.78-.78h-.757L26.16.672A.78.78 0 0025.387 0h-1.732a.78.78 0 00-.773.672l-.89 6.366h-.757a.78.78 0 00-.78.78V9.92a2.824 2.824 0 00-1.655 2.567v20.692A2.824 2.824 0 0021.62 36h5.801a2.824 2.824 0 002.82-2.82V12.486c0-1.14-.68-2.123-1.654-2.567zm.094 23.26c0 .694-.565 1.26-1.26 1.26h-5.8c-.695 0-1.26-.566-1.26-1.26V12.486c0-.695.565-1.26 1.26-1.26h5.8c.695 0 1.26.565 1.26 1.26v5.999h-5.754a.78.78 0 00-.78.78V26.4c0 .431.35.78.78.78h5.754v6zM22.016 8.597h.612v1.069h-.612V8.598zm1.551-1.56l.767-5.478h.374l.767 5.478h-1.908zm1.287 1.56v1.069h-.666V8.598h.666zm1.56 0h.612v1.069h-.612V8.598zm2.267 11.448v5.574h-4.973v-5.574h4.973z" fill="#3F2D20"/></svg>