<svg width="36" height="36" fill="none" xmlns="http://www.w3.org/2000/svg"><g clip-path="url(#clip0)"><path d="M18.521 1.749zm-.24-.062zM18 1.661zm-1.27 2.637zm2.563-1.992zm-.549-.463zM16.396 3.54zm.327.75zm2.574-1.979c.098.13.177.275.233.431a1.627 1.627 0 00-1.919 2.121 1.627 1.627 0 01.39.05c.896 0 1.625-.73 1.625-1.626 0-.366-.123-.704-.329-.976zm-2.719 1.762zm-.115-.261z" fill="#CE593F"/><path d="M21.888 6.767c.034.023.064.05.095.076-.031-.026-.061-.053-.095-.076zm.312.304c.027.039.049.081.071.123-.023-.042-.044-.084-.072-.123zm-.507-.408c.033.014.063.033.095.05-.032-.017-.062-.036-.095-.05zm.453.343c-.029-.035-.056-.07-.088-.101.032.031.06.067.088.101zm.234.468zm-.072-.212c.02.044.035.092.049.14-.015-.048-.029-.095-.05-.14zm-.831-.665c.029.006.055.017.082.025-.027-.008-.053-.02-.082-.025zM14.21 8.768a1.166 1.166 0 01-.127-.074c.04.028.083.05.127.074zm.206.085a1.164 1.164 0 01-.142-.05c.046.02.094.035.142.05zm.219.043zm-.959-.708c.014.034.034.064.051.097-.017-.032-.037-.063-.051-.097zm.104.194c.023.035.052.066.078.098-.027-.032-.055-.063-.078-.098zm-.17-.41c.006.029.017.055.024.082-.007-.027-.018-.053-.024-.082zm.411.67c-.035-.028-.072-.057-.104-.09.033.033.069.061.104.09z" fill="#FDD44B"/><path d="M26.469 14.565c.624 0 1.134.493 1.164 1.11l-.057-.002-9.496-.002c-.459 0-.83-.446-.83-.905 0-.097.017-.02.048-.351h-.325c-.46 0-.831-.26-.831-.718 0-.459.372-.718.83-.718h7.145c.632 0 1.142-.518 1.142-1.153 0-.053-.009-.167-.016-.218-.014-.001-.029-.065-.044-.065h-2.845c-.459 0-.83-.31-.83-.77 0-.06.008-.003.02-.113h-.298c-.458 0-.83-.417-.83-.876s.372-.853.83-.853c.644 0 1.168-.535 1.168-1.179 0-.02-.005.01-.006-.009-.018 0-.036.046-.054.046H15.86c-.644 0-1.167.47-1.167 1.113 0 .018.002.002.003.02.019 0 .037-.029.057-.029h2.866c.459 0 .83.477.83.935 0 .075-.012.28-.03.28h.307c.459 0 .83.259.83.718 0 .458-.371.717-.83.717h-5.711c-.644 0-1.168.59-1.168 1.235 0 .019.024.128.025.147-.609-.03-.608 0 .035 0 .46 0 .83.286.83.745s-.37.745-.83.745H9.531c-.643 0-1.167.538-1.167 1.182 0 .02.005-.027.006-.008.031-.616.538-1.174 1.161-1.174h2.377c.378 0 .696-.177.797-.522.099.027.203.08.31.08a.828.828 0 110 1.656H10.64c-.621 0-1.126.488-1.16 1.1.017.001.034.005.052.005H26.47c.643 0 1.167-.44 1.167-1.085 0-.643-.524-1.084-1.167-1.084z" fill="#FDD44B"/><path d="M28.1 18.093c-.46.328-1.024.408-1.631.408H9.53c-.352 0-.688-.036-.999-.155l.001.099c-.676.557-.806 1.05-.776 1.602H29.35c.036-.552-.155-1.28-1.25-1.954zm-19.887.139l-.023-.012.023.012z" fill="#EF8829"/><path d="M8.606 22.587h-.554l1.865 7.575-1.311-7.575zm6.643 11.928l2.045-.084-.073-11.843h-3.104l1.132 11.927zm3.509-11.928v11.928h2.025l1.182-11.928h-3.207zm6.939 0h-2.145l-1.225 11.597h1.346l2.024-11.596zm1.877 0h-.192L25.17 34.184h.339l2.642-11.596h-.577zm-15.128 0h-1.369l1.83 11.597h.764l-1.225-11.596z" fill="#84BD93"/><path d="M29.12 16.72a2.832 2.832 0 00-2.454-3.808 2.832 2.832 0 00-2.573-4.003h-.27a2.832 2.832 0 00-2.576-3.996h-.392a3.27 3.27 0 00.432-1.626A3.29 3.29 0 0018 0a3.29 3.29 0 00-3.287 3.287c0 .59.158 1.146.432 1.625h-.391a2.832 2.832 0 00-2.576 3.996h-.27a2.832 2.832 0 00-2.573 4.003 2.832 2.832 0 00-2.454 3.808c-2.196 1.431-2.03 3.21-1.682 4.225l3.538 14.424a.83.83 0 00.806.632h16.912a.83.83 0 00.807-.633l3.532-14.401c.353-1.012.536-2.806-1.675-4.247zM9.53 14.564h2.377a.83.83 0 100-1.66 1.169 1.169 0 01-1.167-1.168c0-.644.524-1.167 1.167-1.167h5.712a.83.83 0 100-1.662h-2.866a1.169 1.169 0 010-2.334h6.492a1.169 1.169 0 010 2.334.83.83 0 100 1.662h2.846c.643 0 1.167.523 1.167 1.167 0 .635-.51 1.152-1.142 1.166h-7.145a.83.83 0 100 1.661l9.497.001a1.169 1.169 0 010 2.335H9.53a1.169 1.169 0 01-1.167-1.167 1.17 1.17 0 011.167-1.168zM18 1.661c.896 0 1.626.73 1.626 1.626 0 .896-.73 1.625-1.626 1.625a1.627 1.627 0 01-1.625-1.625c0-.897.729-1.626 1.625-1.626zM7.9 18.041c.46.327 1.024.52 1.631.52H26.47c.607 0 1.17-.193 1.632-.52 1.094.673 1.285 1.35 1.25 1.84H6.65c-.036-.49.155-1.167 1.25-1.84zm2.739 16.298h-.444l-3.14-12.796h1.369l2.215 12.796zm-.53-12.796h2.221l1.341 12.796h-1.346L10.11 21.543zm3.891 0h3.168v12.796h-1.827l-1.34-12.796zm4.83 12.796V21.543h3.168l-1.341 12.796h-1.828zm3.497 0l1.34-12.796h2.221L23.674 34.34h-1.346zm3.032 0l2.215-12.796h1.368L25.803 34.34h-.444z" fill="#3F2D20"/></g><defs><clipPath id="clip0"><path fill="#fff" d="M0 0h36v36H0z"/></clipPath></defs></svg>