<svg width="36" height="36" fill="none" xmlns="http://www.w3.org/2000/svg"><path d="M23.707 19.61v2.659h4.66a1.33 1.33 0 001.328-1.33 1.33 1.33 0 00-1.329-1.328h-4.659zm4.659-4.146h-4.659v2.658h4.66a1.33 1.33 0 001.328-1.329 1.33 1.33 0 00-1.329-1.329zm-10.549 1.241c0-.803-.654-1.456-1.457-1.456s-1.457.653-1.457 1.456v1.417h2.914v-1.417z" fill="#FDD44B"/><path d="M34.4 28.151l.03.05-.03-.05zm.055.095c.009.018.015.037.022.056-.007-.019-.013-.038-.022-.056zm.037.106zm-.127-.242c-.012-.014-.023-.029-.037-.042.014.013.025.028.037.042zm-.123-.11c.015.01.028.021.042.032-.014-.01-.027-.022-.042-.032zm-.097-.052c.015.006.028.015.042.022l-.042-.022zm.361.562H2.89c-.326 0-.59.29-.59.616 0 .017 0-.122.002.076h31.62c.325 0 .59-.291.59-.617a.778.778 0 00-.005-.076zm-.47-.595c.014.003.026.008.039.012-.013-.004-.025-.009-.039-.012z" fill="#84BD93"/><path d="M12.96 7.124zm-.52-.188zm.176.038zm.748.509zm-1.151-.567zm-1.368 1.953zm2.519-1.386c.038.05.073.101.105.155a1.458 1.458 0 00-1.686 1.437c0 .268.074.518.2.734a1.457 1.457 0 011.687-1.437 1.45 1.45 0 00-.306-.889zm-2.256 1.836zm-.152-.214zm-.177-.485z" fill="#CE593F"/><path d="M7.537 13.798c0 .061.006.159.014.217.028.002.054.047.083.047H9.12v-1.583h-.255c-.732 0-1.329.586-1.329 1.32z" fill="#FDD44B"/><path d="M10.808 19.45zm-.306-.892zm.076.461zm.213.407zm-.117-.182zm.653.626zm8.78 4.038zm-8.611-11.429v7.214c0 .09.026.178.041.263a1.364 1.364 0 01.398.059c.803 0 1.442-.654 1.442-1.457v-1.853c0-1.624 1.352-2.945 2.976-2.945 1.146 0 2.19.66 2.691 1.618.802.527 1.358 1.433 1.358 2.462v5.905c0 .09-.026.178-.01.264.128.037.24.058.382.058.803 0 1.41-.653 1.41-1.456V12.478H11.496zm8.858 11.529z" fill="#EF8829"/><path d="M28.366 23.66h-4.891a2.9 2.9 0 01-2.713 1.8 2.9 2.9 0 01-2.713-1.8H8.984a1.336 1.336 0 000 2.672h19.382a1.337 1.337 0 000-2.672zm-13.658-4.057c-.424.99-1.497 1.893-2.75 1.893s-2.325-.903-2.75-1.893h-.224c-.733 0-1.329.554-1.329 1.287 0 .732.596 1.286 1.33 1.286h8.745v-2.573h-3.022zm-5.463-4.156c-.733 0-1.329.554-1.329 1.287 0 .732.596 1.286 1.329 1.286h-.123v-2.573h.123zm19.121-3.167h-4.599v1.782h4.6c.577 0 1.064-.38 1.247-.896a1.337 1.337 0 00-1.248-.885zm1.275.722c.01-.037.023-.072.03-.11-.008.038-.02.073-.03.11z" fill="#FDD44B"/><path d="M17.362 7.124zm-.345-.15zm-.174-.038zm-.228-.02zm1.151.567zm-2.408 1.622zm2.408-1.622c.038.05.073.101.105.155a1.458 1.458 0 00-1.686 1.437c0 .268.074.518.2.734a1.458 1.458 0 011.686-1.437c0-.334-.114-.642-.305-.889zM15.51 9.319zm-.263-.45zm-.067-.249z" fill="#CE593F"/><path d="M33.921 26.415H30.85a2.81 2.81 0 00-.577-3.402 2.811 2.811 0 000-4.146 2.811 2.811 0 000-4.147c.56-.515.91-1.254.91-2.073a2.82 2.82 0 00-2.817-2.818h-9.193c.246-.43.387-.927.387-1.456a2.948 2.948 0 00-2.945-2.946c-.874 0-1.661.384-2.2.992a2.938 2.938 0 00-2.202-.992 2.948 2.948 0 00-2.945 2.946c0 .53.141 1.026.387 1.456H7.634a2.82 2.82 0 00-2.818 2.818c0 .819.352 1.558.912 2.073a2.81 2.81 0 000 4.146 2.81 2.81 0 000 4.147 2.81 2.81 0 00-.578 3.402H2.08A2.08 2.08 0 000 28.494a2.08 2.08 0 002.079 2.078H33.92A2.08 2.08 0 0036 28.494a2.08 2.08 0 00-2.079-2.079zm0 2.67H2.08a.59.59 0 010-1.181h31.84a.59.59 0 010 1.18zM7.634 11.317h1.38v2.658h-1.38a1.33 1.33 0 01-1.33-1.33 1.33 1.33 0 011.33-1.328zm4.58-4.402a1.458 1.458 0 01-.001 2.913 1.458 1.458 0 01-1.456-1.456c0-.804.653-1.457 1.456-1.457zm4.401 0c.803 0 1.457.653 1.457 1.457 0 .803-.654 1.456-1.457 1.456a1.458 1.458 0 01-1.456-1.456c0-.804.653-1.457 1.456-1.457zm13.08 5.73a1.33 1.33 0 01-1.329 1.33h-4.659v-2.658h4.66a1.33 1.33 0 011.328 1.329zm-1.329 13.77H7.634a1.33 1.33 0 01-1.33-1.33 1.33 1.33 0 011.33-1.329h10.415a2.95 2.95 0 002.713 1.799 2.95 2.95 0 002.713-1.799h4.891a1.33 1.33 0 010 2.658zM10.502 11.317h11.717V22.61c0 .803-.654 1.456-1.457 1.456a1.458 1.458 0 01-1.457-1.456v-5.906a2.948 2.948 0 00-2.945-2.945 2.948 2.948 0 00-2.945 2.945v1.853c0 .803-.653 1.457-1.457 1.457a1.458 1.458 0 01-1.456-1.457v-7.24zm4.401 5.387c0-.803.654-1.456 1.457-1.456s1.457.653 1.457 1.456v1.417h-2.914v-1.417zm14.792 4.235a1.33 1.33 0 01-1.329 1.329h-4.659V19.61h4.66a1.33 1.33 0 011.328 1.329zm-1.329-2.818h-4.659v-2.658h4.66a1.33 1.33 0 010 2.658zM7.634 15.464h1.38v2.658h-1.38a1.33 1.33 0 01-1.33-1.329c0-.732.597-1.329 1.33-1.329zm0 4.147h1.574a2.95 2.95 0 002.75 1.892 2.95 2.95 0 002.75-1.892h3.109v2.658H7.634a1.33 1.33 0 01-1.33-1.33 1.33 1.33 0 011.33-1.328z" fill="#3F2D20"/></svg>