<svg width="36" height="36" fill="none" xmlns="http://www.w3.org/2000/svg"><g clip-path="url(#clip0)"><path d="M35.308 19.386h-2.234a5.25 5.25 0 00-5.114-5.028 7.943 7.943 0 00-7.199-4.541c-.808 0-1.604.124-2.362.36a4.266 4.266 0 00-3.148-1.762 4.317 4.317 0 00-.855.02 4.262 4.262 0 00-3.626 3.192 8.017 8.017 0 00-1.387.14 7.98 7.98 0 00-6.458 7.618H.692a.692.692 0 00-.692.692c0 .838 1.817 3.151 2.697 4.14 1.371 1.542 3.385 3.38 5.185 3.38h20.236c1.8 0 3.814-1.838 5.185-3.38.88-.989 2.697-3.302 2.697-4.14a.692.692 0 00-.692-.692zm-3.184 4.073c-1.591 1.75-3.051 2.754-4.006 2.754H7.882c-.955 0-2.415-1.004-4.005-2.754a20.633 20.633 0 01-2.076-2.69h32.398a20.64 20.64 0 01-2.075 2.69zM15.145 9.795a2.89 2.89 0 011.92.931 7.972 7.972 0 00-2.354 1.87 7.875 7.875 0 00-2.529-.869 2.886 2.886 0 012.963-1.932zm16.543 9.59h-1.35a2.516 2.516 0 00-2.503-2.299 2.516 2.516 0 00-2.503 2.3h-.568v-.02c0-.57-.116-1.112-.326-1.604.511-.942 2.026-2.023 3.397-2.023a3.864 3.864 0 013.853 3.646zm-11.562-2.682a2.718 2.718 0 013.254 2.662v.02h-5.43v-.02c0-1.288.915-2.408 2.176-2.662zm.54-1.438a4.069 4.069 0 00-2.57.908 8.002 8.002 0 00-.399-.728 3.83 3.83 0 013.063-1.513c1.405 0 2.678.751 3.363 1.968a5.23 5.23 0 00-.523.607 4.087 4.087 0 00-2.935-1.242zm6.061 4.12a1.129 1.129 0 012.215.001h-2.215zm-1.495-4.333a5.222 5.222 0 00-4.472-2.504c-1.522 0-2.927.64-3.912 1.75a7.984 7.984 0 00-.976-.927 6.581 6.581 0 014.888-2.17 6.563 6.563 0 015.73 3.332 5.28 5.28 0 00-1.258.519zm-8.138 2.306a4.082 4.082 0 00-.528 2.007v.02h-.433a5.25 5.25 0 00-5.239-5.03 5.25 5.25 0 00-5.238 5.03H4.309a6.594 6.594 0 016.586-6.377 6.557 6.557 0 016.2 4.35zm-6.2-.272a2.516 2.516 0 00-2.503 2.3h-1.35a3.864 3.864 0 013.853-3.646 3.865 3.865 0 013.854 3.646h-1.35a2.516 2.516 0 00-2.504-2.3zm1.108 2.3H9.788a1.129 1.129 0 012.215 0z" fill="#3F2D20"/><path d="M27.836 18.47a1.13 1.13 0 00-1.108.915h2.216a1.13 1.13 0 00-1.108-.914zm-7.075-4.538a3.83 3.83 0 00-3.063 1.513c.145.236.278.48.398.729a4.067 4.067 0 012.57-.909c1.15 0 2.19.477 2.935 1.242.16-.217.335-.419.523-.607a3.845 3.845 0 00-3.363-1.968zm-7.363 5.454h1.35a3.864 3.864 0 00-3.853-3.646 3.864 3.864 0 00-3.853 3.646h1.35a2.516 2.516 0 012.503-2.3 2.516 2.516 0 012.503 2.3z" fill="#FDD44B"/><path d="M9.788 19.385h2.215a1.13 1.13 0 00-1.108-.914 1.13 1.13 0 00-1.107.914zm20.39-2.849l.076.06-.076-.06zm.519.479l.057.062-.057-.062zm-.162-.169l-.067-.065c.023.021.045.044.067.066zm-.942-.681l.069.037c-.023-.013-.046-.026-.069-.037zm.297.17c.017.011.035.02.051.032l-.05-.032zm-.641-.325l.071.028-.071-.029zm1.635 1.237a3.84 3.84 0 00-2.362-.813c-1.37 0-2.885 1.079-3.396 2.02.1.234.177.478.232.732-.01.066-.02.132-.026.2a2.511 2.511 0 012.504-2.294c1.313 0 2.394 1.108 2.503 2.305h1.35a4.056 4.056 0 00-.805-2.15zm-2.706-1.491l.065.006-.065-.006zm.749.141l.024.007-.024-.007zm-.364-.087c.021.003.042.008.063.013l-.063-.014zm-14.337-1.905c.043.025.086.052.128.078a3.361 3.361 0 00-.128-.078zm-.46-.243c.033.016.067.03.1.047-.033-.017-.066-.031-.1-.047zm-.434-.191l.126.052-.126-.052zm2.161 1.397c-.037-.037-.076-.071-.114-.107.038.036.077.07.114.107zm-.451-.401l.123.104c-.041-.035-.081-.07-.123-.104zm-.432-.318c.039.026.078.05.116.078-.038-.027-.077-.052-.116-.078zm-3.251-1.123z" fill="#FDD44B"/><path d="M17.095 17.358a6.584 6.584 0 00-1.358-2.238 6.576 6.576 0 00-5.398-1.333c-2.806.538-4.912 2.755-5.28 5.61h.598a5.207 5.207 0 015.238-5.03 5.207 5.207 0 015.239 5.03h.433v-.026c0-.723.19-1.415.528-2.013zm-4.237-4.053l.073.021c-.024-.008-.049-.014-.073-.021zm-.96-.22l.037.004-.037-.004zm.475.09zm11.642-1.117zm-.398-.208c.047.023.094.044.14.068-.046-.024-.093-.045-.14-.068zm.796.451l.14.097-.14-.097zm.317.226zm.307.247l.135.117c-.044-.04-.09-.078-.135-.117zm.486.46zm-2.272-1.546zm-2.081-.473l.128.01-.128-.01zm1.711.335c.045.014.09.031.134.047-.044-.016-.089-.033-.134-.048zm2.796 1.85a6.571 6.571 0 00-4.182-1.491 6.582 6.582 0 00-4.868 2.15c-.053-.055-.109-.106-.163-.159.132.13.263.26.385.398l-.07-.075.079.066a5.201 5.201 0 013.903-1.74c1.843 0 3.521.949 4.472 2.503.394-.226.817-.4 1.258-.519a6.591 6.591 0 00-.814-1.133zm-9.804-.029zm6.605-1.944l.05.013-.05-.013zm-.486-.109l.13.025c-.043-.01-.086-.017-.13-.025zm-.413-.065z" fill="#FDD44B"/><path d="M12.604 11.809l.062.014-.063-.014zm4.311-1.001a2.904 2.904 0 00-1.693-.302 2.885 2.885 0 00-2.153 1.42c.57.16 1.12.384 1.643.67a7.964 7.964 0 012.353-1.87l-.15.082zm3.751 5.842zm1.574.506zm.47.427zm-.055-.06zm-.712-.553zm-.87-.286zm.6.162zm1.211.958a2.698 2.698 0 00-1.494-.45c-.183 0-.364.024-.54.06-1.03.207-1.83 1.062-2.087 1.983h4.618v-.026c0-.582-.185-1.125-.497-1.567zm-1.498-1.054z" fill="#CE593F"/><path d="M5.393 24.935zm-.273-.237c-.033-.029-.065-.056-.097-.086l.096.086zm.523.442zm-1.228-1.113zm-.184-.189l-.085-.09.085.09zm.547.546l-.089-.086.089.086zm1.462 1.188zm27.469-4.078l.134-.19-.134.19zm-.23.316l.152-.206-.152.205zM6.454 25.708zm27.486-4.546c.03-.045.064-.092.092-.136-.028.044-.061.091-.092.136zM7.186 26.069zM3.598 21.79c.427.737 1.149 1.724 2.076 2.745a15.65 15.65 0 001.525 1.464c.248.09.478.12.684.12h20.235c.955 0 2.415-1.012 4.006-2.762.492-.542.924-1.106 1.287-1.566H3.598z" fill="#84BD93"/></g><defs><clipPath id="clip0"><path fill="#fff" d="M0 0h36v36H0z"/></clipPath></defs></svg>