<svg width="18" height="39" fill="none" xmlns="http://www.w3.org/2000/svg"><path d="M3.907 26.812l-.002-.01.002.01zM2.34 12.976l.062.003c-.02-.001-.041-.003-.062-.003zm.554.052l.093.016-.093-.016zm1.59 1.08c.015.04.03.078.043.12-.013-.042-.028-.08-.043-.12zm-1.96-1.123l.077.007-.077-.007zm.186.017l.086.012-.087-.012zm1.297 14.221zm-.064-.256a14.645 14.645 0 00-.01-.038l.01.038zm.109.422l-.006-.023.006.023zm-.08-.305c-.005-.018-.01-.035-.013-.052l.013.052zm-.051-.208l-.005-.025.005.025zm.268-13.24zm-.049-.052zM4.123 27.64l-.021-.075.021.074zM3.078 13.062l.097.023-.097-.023zm1.324.872c.019.034.038.068.054.105-.016-.037-.035-.071-.054-.105zm-.098-.158zm-.869-.614zm-.176-.055zm.345.123zm.162.08zm.153.094zM4.19 27.86zm2.323 4.878L6.42 32.6l.094.138zm-.448-.679zm-.207-.346l-.085-.146.085.146zm.897 1.358c-.022-.028-.042-.057-.063-.086.021.029.041.058.063.086zm.633.772c-.04-.043-.078-.087-.116-.13l.116.13z" fill="#CE593F"/><path d="M11.739 35.15c-2.046-1.939-4.43-5.473-4.171-11.31.257-5.81.577-9.45.722-10.92-.055-.002-1.936-.178-2.235 1.42-.067.359-.368.574-.732.574h-.01c-.36 0-.67-.2-.738-.554-.012-.063-.028-.093-.046-.15-.458-.224-1.017-.276-1.516-.276-.09 1.644-.131 6.518 1.732 13.778l.009.041c.01.046.757 3.604 2.992 6.472.485.494 1.023.95 1.622 1.334 1.358.87 2.894 1.302 4.576 1.285a13.619 13.619 0 01-2.206-1.695zm-4.059-.991zm-2.024-2.802l-.071-.129.07.13zM7.1 33.508l-.096-.117c.031.04.064.078.097.117zM6.284 32.4l-.097-.149.097.15zm-1.85-3.794l-.037-.108.037.108zm.252.674l-.047-.118.047.119zm-.146-.38l-.03-.082.03.082zm-.196-.559a14.995 14.995 0 01-.036-.107l.036.107zm-.082-.248zm.551 1.503l-.055-.134.055.134zm.435.971a4.242 4.242 0 01-.065-.137l.065.137zm.174.351l-.055-.11.055.11zm-.329-.68zm-.145-.323z" fill="#CE593F"/><path d="M6.05 8.292l.016.01-.017-.01z" fill="#84BD93"/><path d="M8.383 11.295c-.275-1.04-.989-1.783-2.122-2.21a.752.752 0 01-.487-.71c0-.023.003-.14.03-.33a.788.788 0 01-.114-.41c.001-.112.056-2.42 2.658-4.519-.057 0-.11-.098-.157-.142C5.5 4.594 5.144 8.4 5.14 8.44a.755.755 0 01-.538.66c-1.265.37-1.836 1.451-2.095 2.376a6.463 6.463 0 00-.235-.007c1.334.022 2.377.426 3.038 1.148.556-.653 1.453-1.205 2.815-1.205.094 0 .189.003.285.008-.009-.041-.017-.083-.028-.125zM5.956 8.224l.008.008-.008-.008z" fill="#84BD93"/><path d="M5.876 8.145l-.001-.002v.002z" fill="#84BD93"/><path d="M16.77 36.551c-.02-.006-2.031-.632-3.997-2.494-2.645-2.505-3.891-5.92-3.703-10.15.327-7.376 2.397-15.22-1.802-16.715.18-.75.8-2.249 2.92-3.485a.752.752 0 00.218-1.107C8.91.649 8.385.649 8.132.649a.856.856 0 00-.39.091C4.68 2.285 3.836 5.795 3.624 7.097-.564 8.888.141 18.17 2.43 27.099c.1.482 1.479 6.74 6.12 9.722 1.585 1.02 3.358 1.53 5.295 1.53.922 0 1.883-.116 2.877-.348a.752.752 0 00.047-1.452zM3.89 26.743c-1.863-7.26-1.821-12.127-1.732-13.77.977 0 2.188.251 2.416 1.443.068.354.378.61.738.61h.01a.76.76 0 00.732-.63c.299-1.598 2.18-1.478 2.235-1.476-.145 1.47-.465 5.11-.722 10.92-.26 5.837 2.125 9.371 4.17 11.309a13.623 13.623 0 002.207 1.695c-1.683.017-3.22-.414-4.577-1.284-4.187-2.687-5.455-8.72-5.467-8.78a.886.886 0 00-.009-.038zM5.057 7.716c.003-.04.359-3.84 3.05-5.46.154.142.364.366.587.624C5.75 4.96 5.691 7.53 5.69 7.646a.752.752 0 00.487.71c1.133.427 1.847 1.17 2.122 2.21.082.31.114.606.121.854a5.234 5.234 0 00-.294-.008c-1.362 0-2.259.552-2.814 1.205-.662-.722-1.705-1.125-3.039-1.147.144-.988.628-2.623 2.246-3.096a.752.752 0 00.538-.658z" fill="#3F2D20"/></svg>