<svg width="36" height="36" fill="none" xmlns="http://www.w3.org/2000/svg"><path d="M11.783 14.828c.035-.077.066-.155.105-.23-.039.075-.07.153-.105.23zm.237-.456c.04-.065.075-.13.118-.193-.043.063-.079.129-.117.193zm-.42.956c.028-.097.054-.194.09-.288-.036.094-.062.191-.09.288zm-.145.658zm2.114-3.183c-.043.027-.08.058-.12.086.087-.06.171-.121.264-.177 1.226-.737 2.762-1.037 4.323-.845 1.562.193 2.979.857 3.989 1.871 1.063 1.067 1.558 2.39 1.393 3.724-.092.751-.382 1.307-.862 1.652-.403.29-.88.394-1.415.394-.574 0-1.217-.12-1.907-.26-.005.372.077.915.382 1.683.212.392 1.147 2.275.256 3.606-.48.718-1.347 1.014-2.577 1.08-.335.017-.977-.067-.983-.068-1.722-.22-2.779-.837-3.137-1.839-.54-1.508.824-3.106 1.125-3.435.483-.671.695-1.178.78-1.54-1.36-.063-2.533-.15-3.198-.938-.189-.223-.292-.486-.4-.785l-3.32 6.76a3.159 3.159 0 013.913.873c.518.664.747 1.49.644 2.325a3.13 3.13 0 01-1.189 2.098 3.12 3.12 0 01-1.936.667 3.133 3.133 0 01-2.486-1.213 3.128 3.128 0 01-.612-1.367c0 .006 0 .012.002.018l-2.394 4.863 26.098-5.607c.076-3.19-1.868-7.77-5.084-11.892-2.709-3.472-5.971-6.155-8.796-7.33l-2.753 5.596zm13.245 6.551a.814.814 0 01.74.717c.337 2.907-.94 5.573-3.417 7.133a.812.812 0 01-1.023-.128l-1.967-2.07a.813.813 0 01.156-1.25c1.316-.828 1.968-2.189 1.79-3.734a.813.813 0 01.875-.904l2.846.236zm-20.366 7.36zm6.337-13.296c-.05.047-.094.096-.141.145.047-.049.092-.098.141-.145zm-.477.532c.043-.055.083-.111.13-.165-.047.054-.087.11-.13.166zm.873-.87c-.054.041-.104.085-.156.129.052-.044.102-.088.156-.13zM7.917 23.916l-.015.01.015-.01zm8.131-16.821zm-.6-.209l.112.035-.112-.035zM6.453 26.37l.006-.082-.006.082zm.902-2zm-.568.786c.012-.023.022-.047.035-.07l-.035.07zm.238-.398l.05-.065-.05.065zm-.4.776c.01-.03.022-.058.033-.087l-.033.087zM21 4.625zm-1.041-.593zm-.526-.253zm6.43 4.901zm-6.859-5.079zm3.722 2.237zm-5.354-2.601zm4.18 1.746zm-5.894.269zm1.181.41z" fill="#FDD44B"/><path d="M33.765 20.896c-.916-2.75-2.74-5.955-5.134-9.025a39.763 39.763 0 00-2.768-3.191C23.031 6.127 20.496 4.81 19 4.81c-.325 0-.598.062-.814.185l-.51 1.035-.012-.005c2.91 1.402 6.053 4.07 8.738 7.51 3.36 4.306 5.364 8.988 5.426 12.545l2.064-.444c.677-.708.634-2.455-.126-4.74zM18.54 3.44zm-1.485 2.31zm1.086-2.416zm-.385-.07z" fill="#FDD44B"/><path d="M9.591 25.06zm.23.019zm.113 2.986c-.036.008-.072.018-.109.024.037-.005.073-.016.11-.024zm.86-2.419a1.514 1.514 0 00-.776-.524 1.526 1.526 0 00-.77 2.4c.199.255.469.433.77.522a1.515 1.515 0 00.776-2.398z" fill="#CE593F"/><path d="M13.213 16.814l-.028-.018.028.018zm7.887-1.677c-.679-.468-1.512-.777-2.415-.889-1.202-.148-2.37.074-3.286.625-.852.512-1.378 1.25-1.48 2.078l-.007.062a4.68 4.68 0 01-.132-.02c.441.075 1.03.102 1.576.127.193.008.598.029.6.029.357.02.67.276.748.642.212 1-.164 2.171-1.117 3.48a.81.81 0 01-.069.084c-.426.451-.98 1.34-.811 1.808.13.36.818.65 1.84.777 1.022.125 1.758.011 1.972-.307.278-.412-.044-1.409-.349-1.952a.857.857 0 01-.046-.096c-.605-1.502-.684-2.729-.236-3.647a.814.814 0 01.877-.443c.003 0 .405.08.594.119.912.185 1.946.395 2.247.179.126-.09.178-.371.197-.53.09-.732-.159-1.477-.703-2.126zm-7.801 1.724a.47.47 0 01-.045-.022c.013.008.03.015.045.022zm.471.13zm-.134-.026zm-.238-.065l-.062-.022.062.023zm.112.035z" fill="#EF8829"/><path d="M25.956 21.533l-.746-.062a5.327 5.327 0 01-1.706 3.654l-.551-.58.858.902c1.427-1.116 2.194-2.717 2.17-4.529.003.208-.007.413-.025.615z" fill="#84BD93"/><path d="M29.914 10.87c-4.322-5.538-9.362-9.26-12.542-9.26-.768 0-1.424.209-1.95.619a.814.814 0 00-.23.282L.085 33.216a.813.813 0 00.9 1.155l33.459-7.189a.816.816 0 00.329-.154c3.128-2.44-.168-10.146-4.858-16.157zM14.926 6.74c3.096.748 7.024 3.737 10.192 7.798 3.216 4.122 5.16 8.702 5.084 11.892L2.285 32.427 14.925 6.74zM33.89 25.637l-2.064.443c-.062-3.557-2.067-8.238-5.426-12.544-3.316-4.25-7.331-7.323-10.743-8.284l.9-1.83c.216-.123.49-.184.814-.184 2.248 0 6.837 2.965 11.259 8.633 2.395 3.07 4.218 6.275 5.134 9.025.76 2.285.803 4.032.126 4.74z" fill="#3F2D20"/><path d="M9.59 23.433c-.707 0-1.377.23-1.936.667a3.155 3.155 0 00-.546 4.422 3.133 3.133 0 002.486 1.213 3.12 3.12 0 001.936-.666 3.13 3.13 0 001.19-2.099 3.13 3.13 0 00-.643-2.324 3.132 3.132 0 00-2.486-1.213zm1.515 3.338c-.05.404-.254.764-.575 1.015-.27.21-.595.322-.936.322a1.526 1.526 0 01-.003-3.049 1.52 1.52 0 011.513 1.712zm8.129-7.523c.69.14 1.333.26 1.907.26.535 0 1.012-.104 1.415-.394.48-.345.77-.9.862-1.652.165-1.335-.33-2.657-1.393-3.724-1.01-1.013-2.427-1.678-3.988-1.87-1.562-.193-3.098.107-4.324.844-1.291.776-2.093 1.938-2.257 3.274-.093.75.053 1.36.434 1.811.665.787 1.83.875 3.19.939-.085.361-.297.868-.78 1.54-.301.328-1.665 1.927-1.125 3.434.358 1.002 1.415 1.62 3.137 1.84.005 0 .648.085.983.067 1.23-.066 2.097-.362 2.577-1.08.89-1.331-.044-3.214-.256-3.605-.305-.77-.387-1.312-.382-1.684zm-.715 4.385c-.214.318-.95.432-1.971.307-1.023-.127-1.71-.417-1.841-.777-.169-.468.385-1.357.811-1.808a.858.858 0 00.07-.083c.952-1.31 1.328-2.48 1.116-3.48a.813.813 0 00-.748-.643l-.6-.03c-.93-.041-1.984-.089-2.223-.372-.1-.119-.082-.403-.063-.562.103-.828.628-1.566 1.481-2.078.917-.551 2.084-.773 3.286-.625 1.203.149 2.28.648 3.036 1.405.702.704 1.033 1.548.93 2.376-.02.16-.07.44-.197.53-.3.216-1.334.006-2.246-.18l-.595-.118a.813.813 0 00-.877.443c-.448.918-.369 2.145.237 3.647a.847.847 0 00.046.096c.304.543.626 1.54.348 1.952zm8.295-4.279l-2.846-.236a.816.816 0 00-.875.904c.178 1.545-.474 2.906-1.79 3.735a.813.813 0 00-.156 1.248l1.967 2.07a.813.813 0 001.023.129c2.476-1.56 3.754-4.226 3.418-7.133a.814.814 0 00-.74-.717zm-3.003 6.093l-.858-.903a5.331 5.331 0 001.787-3.73l1.241.104c.024 1.812-.743 3.413-2.17 4.53z" fill="#3F2D20"/></svg>