<svg width="36" height="36" fill="none" xmlns="http://www.w3.org/2000/svg"><path d="M5.522 17.376l.007-.004-.007.004zm.1-.059c.343-.202.79-.454.877-.505L2.894 7.504a.683.683 0 00-.697.407.685.685 0 00-.013.528l3.439 8.877h-.001zm-.191.113l.013-.007-.013.007zm-.077.048l.019-.012-.02.012zM34.486 7.2zm.047.164zm-4.946 9.497zm-.045-.026zm4.791-9.48a.69.69 0 00-.893.393l-3.588 9.264c.295.169.688.395.855.504l3.791-9.788a.69.69 0 00.046-.244.685.685 0 00-.211-.13z" fill="#FDD44B"/><path d="M25.97 14.037zm-11.95.821l.002.004-.002-.004zm12.305-.518zm-.043-.054zm.161.246zm-3.953.536zm6.983 3.422c-.107 0-1.477-.843-1.888-1.284-.428-.459-.61-1.083-.786-1.682a8.634 8.634 0 00-.25-.757c-.404-.09-1.09.06-1.704.195-.6.133-1.216.268-1.814.272-.021-.009-.043-.015-.064-.023.244.096.48.234.7.4.91.683 1.337 1.912 1.163 2.879h4.643zM13.96 14.661l.005.017-.005-.017zm8.829.486zm-.914-.143c-.022 0-.043-.003-.065-.002-.5-.215-.953-.558-1.396-.893-.602-.456-1.17-.887-1.7-.887-.071 0-.33.014-.462.03.105.26.164.543.164.84a2.265 2.265 0 01-4.224 1.134c-.533-.03-1.077-.148-1.61-.266-.688-.152-1.466-.324-1.839-.154-.422.194-.595.69-.828 1.482-.176.599-.358 1.229-.786 1.689-.158.169-.351.32-.596.513h1.689c.075-.483.27-.933.574-1.32a2.838 2.838 0 011.902-1.072c.113-.013.226-.011.338-.011 1.402 0 2.59.953 2.81 2.403h5.44l-1.67-1.265a.739.739 0 01-.145-1.026 2.994 2.994 0 012.404-1.196zm.209.006c.034.002.067.006.1.01a1.612 1.612 0 00-.1-.01z" fill="#84BD93"/><path d="M13.18 17.535c.045.005.09.013.135.022a1.385 1.385 0 00-.764.69l-.786.093 2.366-.28a1.392 1.392 0 00-.951-.525zm10.027-.307c.023.04.042.082.061.124-.02-.042-.038-.084-.061-.124zm-.181-.247c-.023-.026-.045-.054-.07-.08.025.026.047.054.07.08zm.067.077c.028.035.05.073.075.11-.024-.037-.047-.075-.075-.11zm.201.348a1.54 1.54 0 00-1.337-.252l1.437 1.08a1.53 1.53 0 00-.1-.828z" fill="#FDD44B"/><path d="M16.382 13.319zm.166.071zm-1.12 1.062c-.01-.02-.02-.038-.028-.058.008.02.018.039.028.058zm-.058-.152l-.014-.051c.003.017.01.034.014.05zm.781-1.018zm.629.306zm-1.047 1.196zm-.223-.201c-.015-.019-.03-.037-.042-.057.013.02.027.038.042.057zm.505.307zm-.147-.04zm.93-1.242a.812.812 0 00-.77 1.283c.04.007.081.013.123.013a.812.812 0 00.811-.811.804.804 0 00-.164-.485zm-1.24 1.034z" fill="#CE593F"/><path d="M5.742 24.898zm.283.536zm.771 1.125zM5.49 24.336zm.852 1.609zm24.927-4.747H6.086c.013 1.064.121 2.378.642 3.913.332.978.777 1.933 1.33 2.664.917.687 2.007 1.257 3.27 1.547h13.343c3.027-.774 5.07-2.565 6.074-5.563.336-1.004.496-2.087.57-2.863-.012.134-.027.302-.046.302zm.079-.637zm-24.64 5.885zm24.608-5.493zM8.024 27.739zm23.342-7.527z" fill="#EF8829"/><path d="M35.816 6.613a2.146 2.146 0 00-3.96.092l-3.48 8.983c-.065-.18-.124-.381-.183-.58-.25-.85-.562-1.91-1.619-2.393-.814-.373-1.802-.155-2.756.056-.68.15-1.383.306-1.885.21-.399-.077-.863-.428-1.354-.8-.732-.555-1.56-1.182-2.579-1.182-.836 0-1.534.418-2.129.847a2.268 2.268 0 00-1.672 1.1c-.045.014-.09.027-.132.035-.501.096-1.205-.06-1.885-.21-.954-.21-1.941-.429-2.756-.057-1.057.483-1.369 1.543-1.62 2.395-.058.198-.117.399-.182.58l-3.48-8.984a2.146 2.146 0 00-3.96-.092 2.13 2.13 0 00-.038 1.64l3.957 10.215h-.19a.727.727 0 00-.725.67c-.007.099-.178 2.441.688 5.027 1.171 3.497 3.67 5.74 7.227 6.485.049.01.099.015.149.015h13.496c.05 0 .1-.005.15-.015 3.556-.746 6.055-2.988 7.226-6.485.866-2.585.695-4.928.688-5.027a.727.727 0 00-.725-.67h-.19l3.957-10.215a2.128 2.128 0 00-.038-1.64zm-1.318 1.115l-3.791 9.788c-.262-.171-1.081-.632-1.207-.704l3.712-9.582a.69.69 0 011.286.498zm-3.753 15.975c-1.004 2.999-3.047 4.852-6.073 5.508H11.329c-3.012-.653-5.05-2.492-6.06-5.465-.521-1.535-.629-3.004-.642-3.824h26.748c-.013.81-.118 2.255-.63 3.781zM1.514 7.2a.69.69 0 011.274.03l3.711 9.582c-.122.071-.944.533-1.206.704L1.502 7.728a.685.685 0 01.012-.528zm6.901 9.996c.428-.46.61-1.079.787-1.677.233-.793.405-1.289.828-1.482.372-.17 1.151.002 1.839.154.679.15 1.377.304 2.047.268a2.269 2.269 0 002.235 1.899 2.268 2.268 0 002.265-2.266c0-.628-.257-1.197-.672-1.608.087-.02.172-.032.256-.032.53 0 1.099.431 1.7.887.604.457 1.227.929 1.96 1.07.795.153 1.648-.036 2.472-.218.687-.152 1.466-.324 1.838-.154.423.193.595.689.829 1.482.176.598.358 1.217.786 1.677.41.44 1.78 1.21 1.888 1.272H24.83a2.986 2.986 0 00-1.162-2.868 3 3 0 00-4.197.596.726.726 0 00.145 1.018l1.67 1.254h-5.44a2.85 2.85 0 00-5.624 0H6.527c.107-.062.844-.476 1.101-.642.34-.218.59-.419.787-.63zm7.736-3.915a.812.812 0 010 1.623.812.812 0 010-1.623zm7.243 4.952l-2.178-1.635a1.544 1.544 0 012.178 1.635zm-11.629.107a1.386 1.386 0 011.271-.814c.441 0 .839.207 1.095.534l-2.366.28z" fill="#3F2D20"/></svg>