<svg width="22" height="22" fill="none" xmlns="http://www.w3.org/2000/svg"><g clip-path="url(#clip0)" fill="#0F473D"><path d="M14.79 0c-3.977 0-7.212 3.235-7.212 7.211a7.17 7.17 0 001.5 4.396l-1.122 1.12a.664.664 0 00-.739.14l-6.82 6.82A1.357 1.357 0 001.356 22c.347 0 .694-.132.959-.396l6.82-6.82a.669.669 0 00.138-.74l1.121-1.12a7.174 7.174 0 004.396 1.499c3.976 0 7.211-3.235 7.211-7.212C22.001 3.235 18.766 0 14.79 0zM1.859 21.148a.712.712 0 01-1.006-1.006l5.628-5.628 1.006 1.006-5.628 5.628zm6.82-6.82l-.737.736-1.005-1.005.736-.737a.021.021 0 01.016-.006.02.02 0 01.015.006l.975.975a.022.022 0 010 .031zm.17-.772l-.404-.405 1.05-1.05c.13.14.264.276.405.405l-1.05 1.05zm5.94.222a6.574 6.574 0 01-6.566-6.567A6.574 6.574 0 0114.79.645a6.574 6.574 0 016.566 6.566 6.574 6.574 0 01-6.566 6.567z"/><path d="M19.153 3.881a.322.322 0 00-.512.392 4.856 4.856 0 01-.427 6.364 4.856 4.856 0 01-6.364.427.322.322 0 10-.391.512 5.458 5.458 0 003.323 1.12 5.49 5.49 0 003.888-1.603 5.503 5.503 0 00.483-7.212zm-1.034-1.034a5.503 5.503 0 00-7.212.483 5.503 5.503 0 00-.483 7.211.322.322 0 10.512-.391 4.856 4.856 0 01.427-6.364 4.856 4.856 0 016.364-.427.322.322 0 10.392-.512zM9.202.689H.666a.322.322 0 000 .644h8.536a.322.322 0 000-.644zM7.706 2.411H2.388a.322.322 0 000 .645h5.318a.322.322 0 100-.645zm-.84 1.722H4.111a.322.322 0 000 .645h2.755a.322.322 0 100-.645z"/></g><defs><clipPath id="clip0"><path fill="#fff" d="M0 0h22v22H0z"/></clipPath></defs></svg>