<svg width="36" height="36" fill="none" xmlns="http://www.w3.org/2000/svg"><g clip-path="url(#clip0)"><path d="M6.671 25.519zm-.551-2.595l-.026-.237c.008.08.018.158.027.237zm1.193 4.192c-.034-.07-.07-.14-.103-.21.033.07.069.14.103.21zm-.877-2.429c-.013-.054-.028-.106-.04-.16.012.054.027.106.04.16zm-.197-.932c-.012-.068-.022-.138-.033-.207.011.07.02.139.033.207zm2.681 5.752c.056.062.11.126.168.186-.057-.06-.112-.124-.168-.186zm-1.994-3.264l-.058-.158.058.158zm2.807 4.067c-.06-.051-.12-.102-.178-.155.058.053.119.104.178.156zM7.48 23.357c.127 2.845.993 5.356 2.468 7.225.897.744 1.927 1.31 3.087 1.8h9.93c3.779-1.569 6.24-4.61 6.86-9.025H7.479zm5.451 6.804a.737.737 0 01-1.015.24c-2.068-1.279-3.493-3.325-4.12-5.918a.737.737 0 111.433-.347c.534 2.208 1.732 3.94 3.463 5.01a.738.738 0 01.24 1.015zm16.937-7.153c.013-.106.027-.21.037-.318-.01.107-.024.212-.037.318zm-21.753 5.48a5.466 5.466 0 01-.108-.157c.035.053.072.105.108.157zm-.443-.698c-.043-.073-.083-.147-.124-.221l.124.221zm.945 1.365zm13.655 4.405H15.21v1.079h7.063v-1.08z" fill="#84BD93"/><path d="M14.168 14.274c0 1.353.673 2.058 1.214 2.624.467.49.805.844.805 1.606a.737.737 0 001.475 0c0-1.353-.673-2.058-1.213-2.624-.468-.49-.806-.844-.806-1.606 0-.762.338-1.116.806-1.606.54-.566 1.213-1.271 1.213-2.624 0-1.353-.673-2.058-1.213-2.625-.468-.49-.806-.843-.806-1.605 0-.763.338-1.116.806-1.606.54-.567 1.213-1.272 1.213-2.624a.737.737 0 10-1.475 0c0 .762-.338 1.115-.805 1.605-.54.567-1.214 1.272-1.214 2.625 0 1.352.673 2.057 1.214 2.624.467.49.805.844.805 1.606 0 .762-.338 1.116-.805 1.606-.54.566-1.214 1.271-1.214 2.624zm3.776-.846c0 1.353.673 2.058 1.214 2.624.467.49.805.844.805 1.607a.737.737 0 101.475 0c0-1.354-.673-2.058-1.213-2.625-.468-.49-.806-.844-.806-1.606 0-.762.338-1.116.806-1.606.54-.566 1.213-1.271 1.213-2.624 0-1.353-.673-2.058-1.213-2.625-.468-.49-.806-.843-.806-1.605 0-.763.338-1.116.806-1.606.54-.567 1.213-1.272 1.213-2.624a.737.737 0 10-1.475 0c0 .762-.338 1.116-.805 1.605-.54.567-1.214 1.272-1.214 2.625 0 1.352.673 2.057 1.214 2.624.467.49.805.844.805 1.606 0 .762-.338 1.116-.805 1.606-.54.566-1.214 1.271-1.214 2.624zm-5.252 15.718c-1.731-1.07-2.929-2.802-3.463-5.01a.737.737 0 10-1.434.347c.628 2.593 2.053 4.64 4.121 5.918a.735.735 0 001.015-.24.738.738 0 00-.24-1.015z" fill="#3F2D20"/><path d="M30.722 20.374H5.278a.737.737 0 00-.737.738c0 2.907.71 5.586 2.052 7.748a11.323 11.323 0 005.637 4.65v1.753c0 .407.33.737.737.737h10.066c.407 0 .737-.33.737-.737v-1.754c2.36-.901 4.303-2.5 5.637-4.649 1.343-2.162 2.052-4.841 2.052-7.748a.737.737 0 00-.737-.738zM13.705 34.525v-.816h8.59v.816h-8.59zm-.67-2.291c-4.197-1.468-6.776-5.313-7.003-10.385h23.936c-.227 5.072-2.806 8.917-7.003 10.385h-9.93z" fill="#3F2D20"/></g><defs><clipPath id="clip0"><path fill="#fff" d="M0 0h36v36H0z"/></clipPath></defs></svg>