<svg width="36" height="36" fill="none" xmlns="http://www.w3.org/2000/svg"><path d="M13.399 6.309c.533 0 .843-.23.882-.326-.04-.096-.349-.326-.883-.326-.533 0-.843.23-.881.326.038.096.348.326.882.326zm9.202 0c.534 0 .844-.23.882-.326-.038-.096-.348-.326-.882-.326-.533 0-.843.23-.881.326.038.096.348.326.881.326zm0 8.854c.534 0 .844-.23.882-.326-.038-.096-.348-.326-.882-.326-.533 0-.843.23-.881.326.038.097.348.326.881.326zm-9.202 0c.533 0 .843-.23.882-.326-.04-.096-.349-.326-.883-.326-.533 0-.843.23-.881.326.038.097.348.326.882.326z" fill="#CE593F"/><path d="M13.398 7.882c1.378 0 2.457-.834 2.457-1.9 0-1.064-1.08-1.898-2.457-1.898-1.377 0-2.456.834-2.456 1.899s1.08 1.899 2.456 1.899zm0-2.225c.534 0 .844.23.882.326-.038.096-.348.326-.882.326-.533 0-.843-.23-.882-.326.04-.096.349-.326.882-.326zm9.204 2.225c1.377 0 2.456-.834 2.456-1.9 0-1.064-1.08-1.898-2.456-1.898-1.378 0-2.457.834-2.457 1.899s1.08 1.899 2.457 1.899zm0-2.225c.533 0 .843.23.881.326-.038.096-.348.326-.881.326-.534 0-.844-.23-.883-.326.04-.096.349-.326.883-.326zm-9.204 11.079c1.378 0 2.457-.834 2.457-1.899s-1.08-1.899-2.457-1.899c-1.377 0-2.456.834-2.456 1.9 0 1.064 1.08 1.898 2.456 1.898zm0-2.225c.534 0 .844.23.882.326-.038.096-.348.326-.882.326-.533 0-.843-.23-.882-.326.04-.096.349-.326.882-.326zm9.204 2.225c1.377 0 2.456-.834 2.456-1.899s-1.08-1.899-2.456-1.899c-1.378 0-2.457.834-2.457 1.9 0 1.064 1.08 1.898 2.457 1.898zm0-2.225c.533 0 .843.23.881.326-.038.096-.348.326-.881.326-.534 0-.844-.23-.883-.326.04-.096.349-.326.883-.326z" fill="#3F2D20"/><path d="M1.637 28.877l-.009-.295 32.718-1.716-32.718 1.716.01.294 1.636-.052-1.637.052zm32.753-1.055l-.044-.956.045.956zm-26.27.846l25.904-.834-.958.03-.024-.503L8.12 28.668zm24.91 3.774l.025-.529-26.22-.845 26.195 1.374z" fill="#EF8829"/><path d="M16.15 4.252a5.424 5.424 0 00-2.794-.167l-.023.002.066-.003c1.377 0 2.456.834 2.456 1.899s-1.079 1.899-2.456 1.899c-1.378 0-2.457-.834-2.457-1.9 0-.241.059-.47.16-.681-.004.01-.01.018-.015.027-.289.355-.455.757-.455 1.18 0 .659.405 1.269 1.053 1.725a5.281 5.281 0 001.714.283c2.068 0 3.815-1.16 3.815-2.533 0-.663-.41-1.274-1.063-1.73z" fill="#FDD44B"/><path d="M10.233 18.16c-.038-.02-.078-.038-.115-.06.037.022.077.04.115.06zm3.759 4.096zm3.332-4.706c-1.032.723-2.391 1.392-3.826 1.392a7.13 7.13 0 01-2.905-.599c.015.007.038.016.038.023v1.381c0 1.253 1.508 2.327 3.388 2.506 1.89-.173 3.411-1.248 3.411-2.506v-2.273c0 .025-.07.051-.106.076zm-.294-8.582c-1.001.722-2.28 1.12-3.672 1.12a6.62 6.62 0 01-2.792-.599c.015.007.065.016.065.023v1.381c0 .139.019.27.05.394l-.021.01a6.73 6.73 0 012.739-.565c1.342 0 2.575.418 3.55 1.076.137-.244.316-.42.316-.752l.023-2.277c0 .025-.222.163-.257.189zm-6.8.339l-.113-.061c.037.021.076.04.114.06zm.08 2.163c-.027.014-.056.027-.083.042.027-.015.056-.028.083-.042zm15.94-2.502c-1.002.722-2.303 1.12-3.696 1.12-1.007 0-2.718-.583-2.718-.576v1.38c0 .14.018.27.048.395l-.02.01a6.73 6.73 0 012.738-.565c1.33 0 2.716.52 3.7 1.184.138-.245.312-.63.312-.961l-.045-2.182c0 .025-.284.17-.319.195zm-6.816.339c-.038-.02-.077-.04-.114-.061.037.021.076.04.114.06zm.081 2.162c-.028.014-.058.028-.085.043.027-.015.057-.028.085-.043zm6.778 6.235c-1.02.722-2.288 1.238-3.704 1.238a6.779 6.779 0 01-2.83-.599c.016.007.077.016.077.023v1.381c0 1.253 1.347 2.327 3.203 2.506 1.866-.173 3.551-1.11 3.551-2.367l.174-2.154c0 .026-.436-.053-.471-.028zm-6.858.457l-.114-.06.114.06zm3.71 4.095z" fill="#84BD93"/><path d="M18.815 6.272zm.167.491c-.01-.018-.02-.036-.028-.055l.028.055zm-.112-.265l-.012-.045.012.045zm.238.482l-.037-.06.037.06zm1.452 1.127l-.101-.044.101.044zm-1.276-.897l-.036-.04.036.04zm6.069-2.958a5.424 5.424 0 00-2.794-.167l-.023.002c.022 0 .043-.003.065-.003 1.378 0 2.457.834 2.457 1.899s-1.08 1.899-2.457 1.899c-1.377 0-2.456-.834-2.456-1.9 0-.241.058-.47.16-.681-.004.01-.01.018-.015.027-.29.355-.455.757-.455 1.18 0 .659.404 1.269 1.053 1.725a5.282 5.282 0 001.713.283c2.068 0 3.816-1.16 3.816-2.533 0-.663-.41-1.274-1.064-1.73zm-5.934 3.103zm.555.443l-.088-.057c.029.02.059.038.088.057zm-.293-.207l-.05-.043c.017.015.033.03.05.043zm1.171.63zm-.63-.277c-.032-.017-.062-.035-.093-.053.031.018.061.036.093.053zm-3.672 5.484a3.213 3.213 0 00-.394-.32 5.427 5.427 0 00-2.8-.169l-.022.002c.021 0 .043-.003.065-.003 1.377 0 2.456.835 2.456 1.9 0 1.064-1.08 1.898-2.457 1.898-1.377 0-2.456-.834-2.456-1.899 0-.242.059-.47.16-.682-.004.01-.01.018-.015.027-.29.355-.455.757-.455 1.18 0 .66.404 1.27 1.053 1.726a5.284 5.284 0 001.713.282c2.069 0 3.816-1.16 3.816-2.533 0-.63-.361-1.114-.663-1.41zm8.599-.454zm-4.297 4.102zm4.502-3.97a5.428 5.428 0 00-2.794-.167l-.023.002c.022 0 .043-.003.065-.003 1.377 0 2.456.834 2.456 1.899s-1.08 1.899-2.456 1.899c-1.378 0-2.457-.834-2.457-1.899 0-.242.059-.471.161-.682l-.016.027c-.289.355-.455.757-.455 1.18 0 .659.405 1.269 1.053 1.725a5.281 5.281 0 001.714.283c2.068 0 3.815-1.16 3.815-2.533 0-.663-.41-1.274-1.064-1.73z" fill="#FDD44B"/><path d="M35.207 30.007l-9.907-.319 9.939-.32a.786.786 0 00.76-.823l-.12-2.543a.786.786 0 00-.826-.748L.778 27.052a.786.786 0 00-.745.809l.055 1.82-.087 1.82c-.02.432.312.8.744.823l34.276 1.797.041.001a.786.786 0 00.785-.75l.12-2.542a.787.787 0 00-.76-.823zm-33.57-1.13l-.009-.295 32.718-1.716.045.956-32.754 1.054zm-.013 1.622l32.734 1.054-.045.956L1.61 30.794l.015-.295zm8.061-7.767c1.002.722 2.32 1.12 3.713 1.12 1.393 0 2.712-.398 3.714-1.12.348-.251.645-.531.888-.834.244.303.54.583.888.834 1.002.722 2.32 1.12 3.713 1.12 1.393 0 2.712-.398 3.714-1.12 1.08-.779 1.674-1.839 1.674-2.985v-4.91c0-.705-.226-1.378-.65-1.973a3.354 3.354 0 00.65-1.971v-4.91c0-1.146-.594-2.206-1.674-2.985-1.002-.722-2.32-1.12-3.713-1.12-1.393 0-2.712.398-3.714 1.12a4.524 4.524 0 00-.888.834 4.544 4.544 0 00-.888-.834c-1.002-.722-2.32-1.12-3.713-1.12-1.393 0-2.712.398-3.714 1.12-1.08.78-1.674 1.839-1.674 2.985v4.91c0 .703.223 1.373.65 1.971a3.363 3.363 0 00-.65 1.973v4.91c0 1.146.594 2.206 1.674 2.985zM13.398 3.45c2.069 0 3.816 1.16 3.816 2.533s-1.747 2.532-3.815 2.532c-2.068 0-3.816-1.16-3.816-2.532 0-1.373 1.748-2.533 3.816-2.533zm9.204 0c2.067 0 3.815 1.16 3.815 2.533S24.669 8.515 22.6 8.515c-2.067 0-3.815-1.16-3.815-2.532 0-1.373 1.748-2.533 3.816-2.533zm3.815 16.297c0 1.373-1.748 2.533-3.816 2.533-2.067 0-3.815-1.16-3.815-2.533v-2.002c.034.025.067.052.102.077 1.002.722 2.32 1.12 3.713 1.12 1.393 0 2.712-.398 3.714-1.12.035-.025.068-.052.102-.077v2.002zm-9.203-8.854c0 .33-.1.62-.238.865-.974-.658-2.234-1.026-3.577-1.026-1.331 0-2.594.364-3.577 1.027a1.745 1.745 0 01-.238-.866V8.89l.1.077c1.003.722 2.322 1.12 3.715 1.12 1.393 0 2.711-.398 3.713-1.12l.102-.077v2.002zm-3.815 1.412c1.252 0 2.43.42 3.152 1.123.302.294.663.778.663 1.41 0 1.372-1.747 2.532-3.815 2.532-2.068 0-3.816-1.16-3.816-2.533s1.748-2.532 3.816-2.532zm9.203-2.217c1.392 0 2.711-.398 3.713-1.12l.102-.077v2.002c0 .331-.1.621-.238.866-.984-.663-2.246-1.027-3.577-1.027s-2.593.364-3.577 1.026a1.744 1.744 0 01-.238-.865V8.89l.1.077c1.003.722 2.322 1.12 3.715 1.12zm0 2.217c2.067 0 3.815 1.16 3.815 2.532 0 1.373-1.748 2.533-3.816 2.533-2.067 0-3.815-1.16-3.815-2.533s1.748-2.532 3.816-2.532zm-13.018 5.44c.033.025.066.052.101.077 1.002.722 2.32 1.12 3.714 1.12 1.393 0 2.711-.398 3.713-1.12.035-.025.068-.052.102-.077v2.002c0 1.373-1.747 2.533-3.815 2.533-2.068 0-3.815-1.16-3.815-2.533v-2.002z" fill="#3F2D20"/></svg>