<svg width="31" height="31" fill="none" xmlns="http://www.w3.org/2000/svg"><path d="M20.624 18.574l.023-.017-.086-.064.063.081zm5.533-7.209v.034a.644.644 0 00.755.648 2.327 2.327 0 011.58.278 2.344 2.344 0 00-2.028-1.173c-.106 0-.215.01-.324.025.01.061.017.124.017.188zm-2.502-1.593a.644.644 0 00.94.656 1.052 1.052 0 01.687-.107 1.064 1.064 0 00-1.545-.752.636.636 0 01-.064.029c-.005.058-.01.116-.018.174zM4.95 19.19a.644.644 0 00-.33-.511 4.22 4.22 0 01-.528-.348c.064.784.52 1.457 1.165 1.832a2.307 2.307 0 01-.307-.973zM17.804 4.948a.644.644 0 00.814.496 3.931 3.931 0 013.453.6 3.95 3.95 0 00-4.311-1.458.66.66 0 01-.054.012c.04.113.075.23.098.35z" fill="#fff"/><path d="M2.807 17.095l.072.072-.072-.072zm-1.122-2.061zm-.083-.548l-.008-.087.008.087zM15.274 2.28zM1.636 14.768l-.016-.102.016.102zM14.993 2.22zm1.504.884zm.011.013zm-.678-.601zm-.253-.128zm-.931-.195zM3.284 17.512l-.006-.005.006.005zm-.762-.736zm.172.201zm25.24-.669a.644.644 0 01.006-.995c.551-.448.867-1.11.867-1.819a2.345 2.345 0 00-2.753-2.305.644.644 0 01-.756-.648v-.034a1.064 1.064 0 00-1.561-.938.643.643 0 01-.94-.655 3.957 3.957 0 00-5.037-4.328.644.644 0 01-.815-.496 2.326 2.326 0 00-.271-.725A2.344 2.344 0 0013.182 5.1a.644.644 0 01-.886.515 1.549 1.549 0 00-2.133 1.553.644.644 0 01-.654.692h-.023a3.132 3.132 0 00-3.047 2.477.644.644 0 01-.518.502 4.215 4.215 0 00-2.637 6.673c.15.113.31.216.478.31a.644.644 0 01.33.51 2.354 2.354 0 002.333 2.149c.524 0 1.029-.177 1.437-.494a14.21 14.21 0 00-1.147-.933.644.644 0 01.76-1.04c3.292 2.402 4.764 5.518 5.42 7.66.456 1.493.591 2.595.628 3.536h4.311c1.076-7.448 5.642-9.045 5.84-9.114.336-.117.703.03.82.367a.628.628 0 01-.393.804c-.014.006-.306.108-.743.385a1.87 1.87 0 001.12.343 2.137 2.137 0 001.979-2.933.645.645 0 01.674-.88 1.064 1.064 0 00.803-1.873zm-13.18 6.74a.643.643 0 01-1.216.291c-2.54-5.025-5.077-6.392-5.103-6.405a.645.645 0 01-.276-.866.642.642 0 01.862-.281c.057.029.758.396 1.782 1.403.532-.591 1.168-1.028 1.933-1.268.227-.071.478-.123.649-.158v-2.84c0-.355.33-.643.685-.643.356 0 .685.288.685.643V23.05zm7.407-3.97c-3.668 2.3-4.793 6.025-4.804 6.062a.645.645 0 01-.695.457.63.63 0 01-.537-.637v-9.982c0-.355.329-.644.684-.644.356 0 .685.289.685.644v1.775c1.028.104 2.427.77 3.186 1.821.27-.202.524-.399.824-.587a.628.628 0 01.874.203.648.648 0 01-.217.888zM2.36 16.561a1.522 1.522 0 01-.058-.082l.058.082z" fill="#84BD93"/><path d="M3.075 17.345l-.065-.058c.022.02.043.04.065.058zM1.927 15.79c-.012-.027-.021-.053-.032-.08.01.027.02.053.032.08zm.28.538l-.044-.07.044.07zm-.376-.783l-.032-.096c.01.032.02.064.032.096zm-.081-.252zm.288.734s-.001 0 0 0c-.001 0-.001 0 0 0z" fill="#84BD93"/><path d="M14.113 12.28a.644.644 0 00-.644.644v2.84a4.43 4.43 0 00-2.666 1.426c-1.024-1.007-1.725-1.374-1.782-1.403a.642.642 0 00-.862.28.645.645 0 00.276.867c.026.013 2.563 1.38 5.103 6.405a.644.644 0 001.218-.29V12.924a.644.644 0 00-.643-.643zm-.95 4.87c.101-.03.203-.055.306-.077v3.517a20.398 20.398 0 00-1.784-2.45 3.145 3.145 0 011.478-.99zm8.313.837c-.3.188-.583.385-.852.587a4.414 4.414 0 00-3.242-1.82v-1.776a.644.644 0 00-1.288 0v9.982a.643.643 0 001.262.18c.011-.037 1.137-3.761 4.804-6.062a.644.644 0 10-.684-1.09zm-4.094 4.13v-4.069a3.134 3.134 0 012.246 1.354 13.275 13.275 0 00-2.246 2.716z" fill="#3F2D20"/><path d="M30.095 13.495a3.634 3.634 0 00-3.598-3.63 2.355 2.355 0 00-2.38-1.705 5.247 5.247 0 00-6.093-4.954 3.636 3.636 0 00-3.378-2.3c-1.58 0-2.95 1.02-3.44 2.467a2.84 2.84 0 00-3.164 2.38A4.434 4.434 0 004.43 8.8 5.493 5.493 0 00.3 14.13a5.51 5.51 0 002.555 4.647 3.652 3.652 0 003.572 2.99c.868 0 1.703-.313 2.356-.87 1.31 1.435 2.27 3.124 2.867 5.046.658 2.122.6 3.75.599 3.765a.644.644 0 00.643.672H18.4a.644.644 0 00.64-.568c.34-2.885 1.324-5.28 2.847-6.927a8.42 8.42 0 01.421-.423c.665.555 1.367.817 2.173.817a3.424 3.424 0 003.389-3.884 2.355 2.355 0 001.36-3.547c.557-.652.867-1.48.867-2.354zm-2.16 2.813a1.064 1.064 0 01-.803 1.873.643.643 0 00-.675.88 2.135 2.135 0 01-1.978 2.93c-.316 0-.683-.051-1.12-.347.435-.277.727-.387.742-.393a.644.644 0 00-.427-1.215c-.199.07-4.764 1.744-5.84 9.057h-4.31a14.644 14.644 0 00-.63-3.479 14.662 14.662 0 00-5.42-7.602.644.644 0 10-.76 1.04c.405.295.786.608 1.147.934a2.345 2.345 0 01-1.436.494 2.354 2.354 0 01-2.334-2.149.644.644 0 00-.33-.51 4.222 4.222 0 01-2.176-3.691 4.207 4.207 0 013.477-4.15.644.644 0 00.518-.503A3.132 3.132 0 018.627 7h.023a.644.644 0 00.654-.692 1.549 1.549 0 012.133-1.553.644.644 0 00.885-.514 2.344 2.344 0 012.324-2.048c1.12 0 2.087.798 2.299 1.897a.644.644 0 00.814.496 3.957 3.957 0 015.037 4.328.644.644 0 00.94.655 1.064 1.064 0 011.562.937v.035a.644.644 0 00.756.648 2.345 2.345 0 012.753 2.306c0 .707-.316 1.37-.867 1.818a.644.644 0 00-.006.995z" fill="#3F2D20"/></svg>